<svg width="136" height="145" viewBox="0 0 136 145" fill="none" xmlns="http://www.w3.org/2000/svg">
<path d="M46.2837 115.595H3.19879V141.446H46.2837V115.595Z" stroke="white" stroke-width="6" stroke-miterlimit="10" stroke-linecap="round" stroke-linejoin="round"/>
<path d="M89.3685 98.3613H46.2836V141.446H89.3685V98.3613Z" stroke="white" stroke-width="6" stroke-miterlimit="10" stroke-linecap="round" stroke-linejoin="round"/>
<path d="M110.955 63.8935L118.328 63.7953C126.184 63.6904 132.498 57.2921 132.498 49.4348V42.3511H125.317C117.385 42.3511 110.955 48.7811 110.955 56.7127V63.8935Z" stroke="white" stroke-width="6" stroke-miterlimit="10" stroke-linecap="round" stroke-linejoin="round"/>
<path d="M110.911 63.8935H103.73C95.7985 63.8935 89.3685 57.4635 89.3685 49.5319V42.3511H96.5493C104.481 42.3511 110.911 48.7811 110.911 56.7127V63.8935Z" stroke="white" stroke-width="6" stroke-miterlimit="10" stroke-linecap="round" stroke-linejoin="round"/>
<path d="M110.911 32.585L115.842 27.654C121.288 22.2075 121.288 13.3771 115.842 7.93063L110.911 3L105.98 7.93092C100.534 13.3774 100.534 22.2078 105.98 27.6543L110.911 32.585Z" stroke="white" stroke-width="6" stroke-miterlimit="10" stroke-linecap="round" stroke-linejoin="round"/>
<path d="M110.911 32.585V81.1273" stroke="white" stroke-width="6" stroke-miterlimit="10" stroke-linecap="round" stroke-linejoin="round"/>
<path d="M132.453 81.127H89.3685V141.446H132.453V81.127Z" stroke="white" stroke-width="6" stroke-miterlimit="10" stroke-linecap="round" stroke-linejoin="round"/>
<path d="M3 89.6476C72.919 74.2335 67.7488 16.2126 67.7488 3.28711" stroke="white" stroke-width="6" stroke-miterlimit="10" stroke-linecap="round" stroke-linejoin="round"/>
<path d="M55.5627 15.1861L67.7488 3L79.9349 15.1861" stroke="white" stroke-width="6" stroke-miterlimit="10" stroke-linecap="round" stroke-linejoin="round"/>
</svg>
