<svg width="178" height="179" viewBox="0 0 178 179" fill="none" xmlns="http://www.w3.org/2000/svg">
<path d="M24.988 84.3613H3V153.682H24.988V84.3613Z" stroke="white" stroke-width="6" stroke-miterlimit="10"/>
<path d="M152.993 114.953V153.682H174.981V84.3613H152.993V109.754" stroke="white" stroke-width="6" stroke-miterlimit="10"/>
<path d="M82.0825 167.274L88.1637 173.31C90.7016 175.848 94.8165 175.848 97.3543 173.31C99.8922 170.772 99.8922 166.657 97.3543 164.119L101.171 167.89C103.709 170.428 107.824 170.428 110.362 167.89C112.842 165.409 112.892 161.426 110.523 158.878L112.809 161.163C115.347 163.701 119.462 163.701 122 161.163C124.498 158.665 124.531 154.641 122.11 152.095L125.622 155.607C127.992 157.511 132.107 157.511 134.645 154.973C137.182 152.435 137.182 148.32 134.645 145.783L125.46 136.614" stroke="white" stroke-width="6" stroke-miterlimit="10"/>
<path d="M24.9876 143.285H36.3126" stroke="white" stroke-width="6" stroke-miterlimit="10"/>
<path d="M42.199 91.2935H24.9876" stroke="white" stroke-width="6" stroke-miterlimit="10"/>
<path d="M86.9981 79.3032L72.57 79.4848C69.8422 79.5192 67.2367 80.6241 65.3162 82.5617L56.6587 91.2947H47.4411" stroke="white" stroke-width="6" stroke-miterlimit="10"/>
<path d="M91.68 158.537L97.3547 164.119" stroke="white" stroke-width="6" stroke-miterlimit="10"/>
<path d="M100.879 149.344L110.524 158.878" stroke="white" stroke-width="6" stroke-miterlimit="10"/>
<path d="M110.524 140.643L122.111 152.095" stroke="white" stroke-width="6" stroke-miterlimit="10"/>
<path d="M66.086 126.73L52.7868 140.029C50.2489 142.567 50.2489 146.682 52.7868 149.22C55.3246 151.758 59.4395 151.758 61.8089 149.854L75.5095 136.153C78.1118 133.551 78.1118 129.332 75.5095 126.73C72.9072 124.128 68.688 124.128 66.086 126.73Z" stroke="white" stroke-width="6" stroke-miterlimit="10"/>
<path d="M48.5852 125.388L37.7368 136.236C35.199 138.774 35.199 142.889 37.7368 145.427C40.2746 147.964 44.3895 147.964 46.7589 146.06L58.0087 134.811C60.611 132.208 60.611 127.99 58.0087 125.387C55.4064 122.786 51.1872 122.786 48.5852 125.388Z" stroke="white" stroke-width="6" stroke-miterlimit="10"/>
<path d="M75.5092 136.153L62.2099 149.452C59.6721 151.99 59.6721 156.105 62.2099 158.643C64.7478 161.181 68.8627 161.181 71.2321 159.277L84.9327 145.576C87.535 142.974 87.535 138.755 84.9327 136.153C82.3304 133.551 78.1115 133.551 75.5092 136.153Z" stroke="white" stroke-width="6" stroke-miterlimit="10"/>
<path d="M82.4818 148.027L71.6334 158.876C69.0956 161.413 69.0956 165.528 71.6334 168.066C74.1713 170.604 78.2862 170.604 80.6556 168.7L91.9053 157.45C94.5077 154.848 94.5077 150.629 91.9053 148.027C89.303 145.425 85.0841 145.425 82.4818 148.027Z" stroke="white" stroke-width="6" stroke-miterlimit="10"/>
<path d="M152.993 91.3162H125.709L112.649 81.4151C110.841 80.0446 108.635 79.3032 106.367 79.3032H86.9981L61.6845 104.141L66.4465 109.357C70.4078 113.696 77.175 113.893 81.3827 109.793L90.0423 101.258L132.758 143.913L152.993 143.285" stroke="white" stroke-width="6" stroke-miterlimit="10"/>
<path d="M90.0427 101.257L103.399 114.595C107.41 118.6 113.889 118.655 117.968 114.719L120.261 112.506" stroke="white" stroke-width="6" stroke-miterlimit="10"/>
<path d="M161.853 130.807H167.053" stroke="white" stroke-width="6" stroke-miterlimit="10"/>
<path d="M11.0801 130.807H16.2791" stroke="white" stroke-width="6" stroke-miterlimit="10"/>
<path d="M109.787 42.4551V68.3566H62.9953V3H109.787V37.1406" stroke="white" stroke-width="6" stroke-miterlimit="10"/>
<path d="M109.787 19.1169H132.966V68.3564" stroke="white" stroke-width="6" stroke-miterlimit="10"/>
<path d="M39.8161 68.3564V19.1169H62.9953" stroke="white" stroke-width="6" stroke-miterlimit="10"/>
<path d="M96.7894 44.7661H75.993V68.3568H96.7894V44.7661Z" stroke="white" stroke-width="6" stroke-miterlimit="10"/>
<path d="M118.755 31.9417H123.998" stroke="white" stroke-width="6" stroke-miterlimit="10"/>
<path d="M118.755 42.3401H123.998" stroke="white" stroke-width="6" stroke-miterlimit="10"/>
<path d="M118.755 52.738H123.998" stroke="white" stroke-width="6" stroke-miterlimit="10"/>
<path d="M48.7845 31.9417H54.0269" stroke="white" stroke-width="6" stroke-miterlimit="10"/>
<path d="M48.7845 42.3401H54.0269" stroke="white" stroke-width="6" stroke-miterlimit="10"/>
<path d="M48.7845 52.738H54.0269" stroke="white" stroke-width="6" stroke-miterlimit="10"/>
<path d="M73.3935 13.5928H78.6359" stroke="white" stroke-width="6" stroke-miterlimit="10"/>
<path d="M83.5965 13.5928H88.8389" stroke="white" stroke-width="6" stroke-miterlimit="10"/>
<path d="M93.9947 13.5928H99.2371" stroke="white" stroke-width="6" stroke-miterlimit="10"/>
<path d="M73.3935 23.9915H78.6359" stroke="white" stroke-width="6" stroke-miterlimit="10"/>
<path d="M83.5965 23.9915H88.8389" stroke="white" stroke-width="6" stroke-miterlimit="10"/>
<path d="M93.9947 23.9915H99.2371" stroke="white" stroke-width="6" stroke-miterlimit="10"/>
<path d="M73.3935 34.3894H78.6359" stroke="white" stroke-width="6" stroke-miterlimit="10"/>
<path d="M83.5965 34.3894H88.8389" stroke="white" stroke-width="6" stroke-miterlimit="10"/>
<path d="M93.9947 34.3894H99.2371" stroke="white" stroke-width="6" stroke-miterlimit="10"/>
<path d="M26.6451 68.3564H146.181" stroke="white" stroke-width="6" stroke-miterlimit="10"/>
</svg>
