<svg width="129" height="129" viewBox="0 0 129 129" fill="none" xmlns="http://www.w3.org/2000/svg">
<mask id="mask0_13_597" style="mask-type:luminance" maskUnits="userSpaceOnUse" x="0" y="0" width="129" height="129">
<path d="M0 0H128.667V128.667H0V0Z" fill="white"/>
</mask>
<g mask="url(#mask0_13_597)">
<mask id="mask1_13_597" style="mask-type:luminance" maskUnits="userSpaceOnUse" x="0" y="0" width="129" height="129">
<path d="M128.667 -0.000167847H1.52588e-05V128.667H128.667V-0.000167847Z" fill="white"/>
</mask>
<g mask="url(#mask1_13_597)">
<path d="M50.2008 113.016C49.8268 114.335 53.7243 122.372 54.4013 123.641H74.2655C74.9422 122.372 78.8399 114.335 78.466 113.016L99.4273 100.914C100.383 101.897 109.291 102.54 110.729 102.589L120.661 85.3857C119.9 84.1646 114.889 76.771 113.56 76.4355V52.2314C114.889 51.8956 119.9 44.5021 120.661 43.2813L110.729 26.0784C109.291 26.1269 100.383 26.7697 99.4273 27.7528L78.466 15.6508C78.8399 14.3318 74.9422 6.29536 74.2655 5.02604H54.4013C53.7243 6.29536 49.8268 14.3318 50.2008 15.6508L29.2394 27.7528C28.2839 26.7697 19.3755 26.1269 17.9376 26.0784L8.00562 43.2813C8.76657 44.5021 13.7775 51.8956 15.1067 52.2314V76.4355C13.7775 76.771 8.76657 84.1646 8.00562 85.3857L17.9376 102.589C19.3755 102.54 28.2839 101.897 29.2394 100.914L50.2008 113.016Z" stroke="white" stroke-width="10" stroke-miterlimit="10" stroke-linecap="round" stroke-linejoin="round"/>
<path d="M37.956 64.3335C37.956 49.7655 49.7654 37.9561 64.3334 37.9561C78.9014 37.9561 90.7108 49.7655 90.7108 64.3335C90.7108 78.9015 78.9014 90.7109 64.3334 90.7109" stroke="white" stroke-width="10" stroke-miterlimit="10" stroke-linecap="round" stroke-linejoin="round"/>
</g>
</g>
</svg>
