<svg width="162" height="141" viewBox="0 0 162 141" fill="none" xmlns="http://www.w3.org/2000/svg">
<path d="M65.4646 57.3733C65.4646 50.2234 59.6684 44.4272 52.5185 44.4272C45.3686 44.4272 39.5724 50.2234 39.5724 57.3733C39.5724 58.7267 39.5724 61.1985 39.5724 62.5519C39.5724 69.7018 45.3686 75.498 52.5185 75.498C59.6684 75.498 65.4646 69.7018 65.4646 62.5519C65.4646 61.1985 65.4646 58.7267 65.4646 57.3733Z" stroke="white" stroke-width="6" stroke-miterlimit="10" stroke-linecap="round" stroke-linejoin="round"/>
<path d="M122.428 57.3733C122.428 50.2234 116.631 44.4272 109.481 44.4272C102.332 44.4272 96.5354 50.2234 96.5354 57.3733C96.5354 58.7267 96.5354 61.1985 96.5354 62.5519C96.5354 69.7018 102.332 75.498 109.481 75.498C116.631 75.498 122.428 69.7018 122.428 62.5519C122.428 61.1985 122.428 58.7267 122.428 57.3733Z" stroke="white" stroke-width="6" stroke-miterlimit="10" stroke-linecap="round" stroke-linejoin="round"/>
<path d="M81 91.0332V98.801" stroke="white" stroke-width="6" stroke-miterlimit="10" stroke-linecap="round" stroke-linejoin="round"/>
<path d="M52.5185 75.498V83.2656" stroke="white" stroke-width="6" stroke-miterlimit="10" stroke-linecap="round" stroke-linejoin="round"/>
<path d="M109.481 75.498V83.2656" stroke="white" stroke-width="6" stroke-miterlimit="10" stroke-linecap="round" stroke-linejoin="round"/>
<path d="M81 91.0333C88.1499 91.0333 93.9461 85.2371 93.9461 78.0872C93.9461 70.9373 88.1499 65.1411 81 65.1411C73.8501 65.1411 68.0539 70.9373 68.0539 78.0872C68.0539 85.2371 73.8501 91.0333 81 91.0333Z" stroke="white" stroke-width="6" stroke-miterlimit="10" stroke-linecap="round" stroke-linejoin="round"/>
<path d="M104.303 121.303V103.979C104.303 96.8294 98.5067 91.0332 91.3568 91.0332H70.6432C63.4933 91.0332 57.6971 96.8294 57.6971 103.979V121.123" stroke="white" stroke-width="6" stroke-miterlimit="10" stroke-linecap="round" stroke-linejoin="round"/>
<path d="M132.784 97.2155V88.4441C132.784 81.2942 126.988 75.498 119.838 75.498H93.9461" stroke="white" stroke-width="6" stroke-miterlimit="10" stroke-linecap="round" stroke-linejoin="round"/>
<path d="M68.0539 75.498H42.1617C35.0118 75.498 29.2156 81.2942 29.2156 88.4441V97.2158" stroke="white" stroke-width="6" stroke-miterlimit="10" stroke-linecap="round" stroke-linejoin="round"/>
<path d="M117.092 46.27C119.01 44.3904 119.838 42.1462 119.838 39.2484C119.838 33.5286 115.201 28.8916 109.481 28.8916C103.762 28.8916 99.1246 33.5286 99.1246 39.2484C99.1246 42.1462 99.9256 44.3607 101.843 46.2404" stroke="white" stroke-width="6" stroke-miterlimit="10" stroke-linecap="round" stroke-linejoin="round"/>
<path d="M112.394 3C100.457 3 89.2457 7.49025 81 14.871C72.7543 7.49025 61.5433 3 49.6058 3C23.8661 3 3 23.8661 3 49.6058C3 96.2116 81 137.639 81 137.639C81 137.639 159 96.2113 159 49.6058C159 23.8661 138.134 3 112.394 3Z" stroke="white" stroke-width="6" stroke-miterlimit="10" stroke-linecap="round" stroke-linejoin="round"/>
</svg>
