<svg width="146" height="141" viewBox="0 0 146 141" fill="none" xmlns="http://www.w3.org/2000/svg">
<path d="M60.0122 67.0999H31.885C31.885 89.807 50.2925 108.214 72.9996 108.214C95.7067 108.214 114.114 89.807 114.114 67.0999H85.9404" stroke="white" stroke-width="6" stroke-miterlimit="10" stroke-linecap="round" stroke-linejoin="round"/>
<path d="M119.666 33.3877C111.274 33.3877 104.472 26.5852 104.472 18.1938C104.472 9.80251 111.274 3 119.666 3C128.057 3 134.86 9.80251 134.86 18.1938C134.86 26.5852 128.057 33.3877 119.666 33.3877Z" stroke="white" stroke-width="6" stroke-miterlimit="10" stroke-linecap="round" stroke-linejoin="round"/>
<path d="M142.999 67.0819V43.9869C142.999 38.1332 138.253 33.3875 132.399 33.3875H106.932C101.078 33.3875 96.3324 38.1329 96.3324 43.9869V66.179" stroke="white" stroke-width="6" stroke-miterlimit="10" stroke-linecap="round" stroke-linejoin="round"/>
<path d="M72.9996 33.3877C64.6083 33.3877 57.8058 26.5852 57.8058 18.1938C57.8058 9.80251 64.6083 3 72.9996 3C81.3909 3 88.1935 9.80251 88.1935 18.1938C88.1935 26.5852 81.3909 33.3877 72.9996 33.3877Z" stroke="white" stroke-width="6" stroke-miterlimit="10" stroke-linecap="round" stroke-linejoin="round"/>
<path d="M96.3327 43.9869C96.3327 38.1332 91.5873 33.3875 85.7332 33.3875H60.2657C54.4119 33.3875 49.6662 38.1329 49.6662 43.9869V66.179" stroke="white" stroke-width="6" stroke-miterlimit="10" stroke-linecap="round" stroke-linejoin="round"/>
<path d="M26.3334 33.3877C17.9421 33.3877 11.1395 26.5852 11.1395 18.1938C11.1395 9.80251 17.9421 3 26.3334 3C34.7247 3 41.5272 9.80251 41.5272 18.1938C41.5272 26.5852 34.7247 33.3877 26.3334 33.3877Z" stroke="white" stroke-width="6" stroke-miterlimit="10" stroke-linecap="round" stroke-linejoin="round"/>
<path d="M49.6665 43.9869C49.6665 38.1332 44.9211 33.3875 39.067 33.3875H13.5995C7.74573 33.3875 3 38.1329 3 43.9869V67.0819" stroke="white" stroke-width="6" stroke-miterlimit="10" stroke-linecap="round" stroke-linejoin="round"/>
<circle cx="2.8455" cy="2.8455" r="2.8455" transform="matrix(-1 0 0 1 75.8451 64.2544)" fill="white"/>
<path d="M114.114 67.0999H142.999V81.9562C142.999 83.6094 141.659 84.9525 140.003 84.9525H130.299C129.212 88.444 127.81 91.7988 126.134 94.9886L133.003 101.858C134.172 103.027 134.172 104.922 133.003 106.092L111.992 127.103C110.822 128.272 108.927 128.272 107.757 127.103L100.888 120.234C97.6986 121.91 94.3437 123.313 90.8523 124.4V134.103C90.8523 135.759 89.5092 137.099 87.856 137.099H58.1433C56.49 137.099 55.1469 135.759 55.1469 134.103V124.4C51.6555 123.313 48.3007 121.91 45.1109 120.234L38.2418 127.103C37.0723 128.272 35.1772 128.272 34.0077 127.103L12.9965 106.092C11.827 104.922 11.827 103.027 12.9965 101.858L19.8656 94.9886C18.1896 91.7988 16.7867 88.444 15.6998 84.9525H5.99661C4.34053 84.9525 3.0003 83.6094 3.0003 81.9562V67.0999H31.885" stroke="white" stroke-width="6" stroke-miterlimit="10" stroke-linecap="round" stroke-linejoin="round"/>
</svg>
