<svg width="244" height="195" viewBox="0 0 244 195" fill="none" xmlns="http://www.w3.org/2000/svg">
<mask id="mask0_144_471" style="mask-type:luminance" maskUnits="userSpaceOnUse" x="58" y="0" width="129" height="129">
<path d="M186.67 0H58V128.67H186.67V0Z" fill="white"/>
</mask>
<g mask="url(#mask0_144_471)">
<mask id="mask1_144_471" style="mask-type:luminance" maskUnits="userSpaceOnUse" x="58" y="0" width="129" height="129">
<path d="M58 -6.10352e-05H186.67V128.67H58V-6.10352e-05Z" fill="white"/>
</mask>
<g mask="url(#mask1_144_471)">
<path d="M148.243 8.64688C151.495 11.8988 153.12 16.1618 153.12 20.4232C153.12 24.6846 151.495 28.9476 148.243 32.1995L122.335 58.1074L96.4275 32.1995C89.9239 25.6959 89.9239 15.1505 96.4275 8.64688C99.6792 5.39495 103.942 3.76999 108.204 3.76999C112.465 3.76999 116.728 5.39495 119.98 8.64688L122.335 11.0021L124.691 8.64688C131.194 2.14327 141.74 2.14327 148.243 8.64688Z" stroke="white" stroke-width="7" stroke-miterlimit="10"/>
<path d="M140.708 94.0967L167.571 64.8371V40.8017C167.571 32.3357 174.434 25.4724 182.9 25.4724V79.206L150.718 113.822V124.9H122.335V91.6568L137.393 74.0589C143.373 68.0795 153.067 68.0795 159.046 74.0589" stroke="white" stroke-width="7" stroke-miterlimit="10"/>
<path d="M152.241 70.1094V55.9647C152.241 47.4986 159.105 40.6354 167.571 40.6354" stroke="white" stroke-width="7" stroke-miterlimit="10"/>
<path d="M103.962 94.0967L77.099 64.8371V40.8017C77.099 32.3357 70.2357 25.4724 61.7697 25.4724V79.206L93.9522 113.822V124.9H122.335V91.6568L107.277 74.0589C101.297 68.0795 91.6032 68.0795 85.6239 74.0589" stroke="white" stroke-width="7" stroke-miterlimit="10"/>
<path d="M92.4284 70.1094V55.9647C92.4284 47.4986 85.5652 40.6354 77.0991 40.6354" stroke="white" stroke-width="7" stroke-miterlimit="10"/>
</g>
</g>
<path d="M21.7064 171.424L22.8264 178.088H23.1064L24.3384 171.368L32.5144 148.8H41.2504L25.4024 188.28H19.4664L3.50641 148.8H13.1384L21.7064 171.424ZM61.1921 179.656H47.9761L44.7841 188H36.4961L51.8401 148.52H57.9441L73.3441 188H64.5521L61.1921 179.656ZM50.2721 173.104H59.2321L56.2081 164.928L54.8641 158.712H54.5841L53.2401 164.984L50.2721 173.104ZM103.987 188H76.9955V148.8H85.2835V180.72H103.987V188ZM101.025 168.4C101.025 165.189 101.436 162.315 102.257 159.776C103.078 157.237 104.254 155.109 105.785 153.392C107.353 151.637 109.257 150.312 111.497 149.416C113.737 148.483 116.276 148.016 119.113 148.016C122.137 148.016 124.769 148.52 127.009 149.528C129.286 150.499 131.172 151.88 132.665 153.672C134.196 155.464 135.334 157.611 136.081 160.112C136.865 162.613 137.257 165.376 137.257 168.4C137.257 171.611 136.828 174.485 135.969 177.024C135.148 179.563 133.953 181.709 132.385 183.464C130.817 185.181 128.913 186.507 126.673 187.44C124.433 188.336 121.913 188.784 119.113 188.784C116.089 188.784 113.438 188.299 111.161 187.328C108.921 186.32 107.036 184.92 105.505 183.128C104.012 181.336 102.892 179.189 102.145 176.688C101.398 174.187 101.025 171.424 101.025 168.4ZM109.817 168.4C109.817 170.341 110.004 172.115 110.377 173.72C110.75 175.325 111.31 176.707 112.057 177.864C112.804 179.021 113.756 179.917 114.913 180.552C116.108 181.187 117.508 181.504 119.113 181.504C122.062 181.504 124.358 180.496 126.001 178.48C127.644 176.464 128.465 173.104 128.465 168.4C128.465 166.533 128.297 164.797 127.961 163.192C127.625 161.587 127.065 160.205 126.281 159.048C125.534 157.853 124.564 156.939 123.369 156.304C122.212 155.632 120.793 155.296 119.113 155.296C116.201 155.296 113.924 156.341 112.281 158.432C110.638 160.523 109.817 163.845 109.817 168.4ZM143.113 149.192C144.009 149.043 144.979 148.912 146.025 148.8C147.107 148.651 148.19 148.539 149.273 148.464C150.355 148.389 151.401 148.333 152.409 148.296C153.454 148.259 154.406 148.24 155.265 148.24C157.243 148.24 159.185 148.408 161.089 148.744C163.03 149.08 164.747 149.659 166.241 150.48C167.771 151.301 169.003 152.44 169.937 153.896C170.87 155.315 171.337 157.107 171.337 159.272C171.337 162.483 170.534 165.133 168.929 167.224C167.361 169.277 165.177 170.677 162.377 171.424L165.345 173.16L175.145 188H165.513L155.769 172.824L151.401 172.152V188H143.113V149.192ZM155.825 155.52C154.966 155.52 154.126 155.539 153.305 155.576C152.521 155.576 151.886 155.632 151.401 155.744V166.552H154.929C157.281 166.552 159.129 166.104 160.473 165.208C161.854 164.312 162.545 162.763 162.545 160.56C162.545 158.917 161.966 157.667 160.809 156.808C159.651 155.949 157.99 155.52 155.825 155.52ZM179.644 148.8H204.9V156.08H187.932V164.592H203.332V171.872H187.932V180.72H205.18V188H179.644V148.8ZM229.731 177.248C229.731 176.091 229.245 175.176 228.275 174.504C227.304 173.832 226.091 173.216 224.635 172.656C223.216 172.096 221.667 171.536 219.987 170.976C218.307 170.416 216.739 169.669 215.283 168.736C213.864 167.803 212.669 166.627 211.699 165.208C210.728 163.789 210.243 161.941 210.243 159.664C210.243 157.723 210.579 156.024 211.251 154.568C211.96 153.075 212.931 151.861 214.163 150.928C215.432 149.957 216.944 149.229 218.699 148.744C220.491 148.259 222.451 148.016 224.579 148.016C227.043 148.016 229.376 148.24 231.579 148.688C233.819 149.099 235.648 149.696 237.067 150.48L234.435 157.424C233.987 157.163 233.408 156.901 232.699 156.64C232.027 156.341 231.243 156.099 230.347 155.912C229.451 155.688 228.499 155.52 227.491 155.408C226.483 155.259 225.456 155.184 224.411 155.184C222.544 155.184 221.088 155.52 220.043 156.192C219.035 156.827 218.531 157.723 218.531 158.88C218.531 160.037 219.016 160.971 219.987 161.68C220.957 162.352 222.152 162.987 223.571 163.584C225.027 164.144 226.595 164.723 228.275 165.32C229.955 165.88 231.504 166.627 232.923 167.56C234.379 168.456 235.592 169.595 236.563 170.976C237.533 172.357 238.019 174.131 238.019 176.296C238.019 178.461 237.645 180.328 236.899 181.896C236.152 183.464 235.088 184.771 233.707 185.816C232.363 186.824 230.739 187.571 228.835 188.056C226.931 188.541 224.84 188.784 222.563 188.784C221.032 188.784 219.576 188.691 218.195 188.504C216.851 188.355 215.6 188.168 214.443 187.944C213.285 187.683 212.259 187.421 211.363 187.16C210.504 186.861 209.813 186.581 209.291 186.32L212.035 179.32C212.445 179.544 213.005 179.787 213.715 180.048C214.461 180.309 215.283 180.571 216.179 180.832C217.075 181.056 218.027 181.243 219.035 181.392C220.08 181.541 221.125 181.616 222.171 181.616C224.635 181.616 226.501 181.261 227.771 180.552C229.077 179.843 229.731 178.741 229.731 177.248Z" fill="white"/>
</svg>
