<svg width="48" height="50" viewBox="0 0 48 50" fill="none" xmlns="http://www.w3.org/2000/svg">
<path d="M13.6704 13.5H10.5748C7.28428 13.5 5.6404 13.5 4.47007 14.2623C3.44306 14.9312 2.6536 15.9879 2.24135 17.2482C1.77188 18.6834 2.04211 20.5246 2.58239 24.2055L2.58352 24.2125L4.94661 40.3125C5.34748 43.0436 5.54923 44.4098 6.14937 45.4345C6.67838 46.3378 7.42096 47.052 8.29262 47.496C9.28147 47.9998 10.5002 48 12.9385 48H34.658C37.0964 48 38.3143 47.9998 39.3031 47.496C40.1748 47.052 40.9179 46.3378 41.447 45.4345C42.0471 44.4098 42.2477 43.0436 42.6486 40.3125L45.0117 24.2125L45.014 24.2012C45.5539 20.5231 45.824 18.6829 45.3547 17.2482C44.9424 15.9879 44.1549 14.9312 43.1278 14.2623C41.9575 13.5 40.3109 13.5 37.0204 13.5H33.9255M13.6704 13.5H33.9255M13.6704 13.5C13.6704 7.14873 18.2047 2 23.7979 2C29.3912 2 33.9255 7.14873 33.9255 13.5" stroke="white" stroke-width="4" stroke-linecap="round" stroke-linejoin="round"/>
</svg>
