<svg width="74" height="74" viewBox="0 0 74 74" fill="none" xmlns="http://www.w3.org/2000/svg">
<path d="M58.3361 50.1097C52.6853 46.3579 47.0419 42.5959 41.408 38.8207C41.1112 38.6218 40.9218 38.6197 40.6425 38.8105C39.6342 39.5022 38.6112 40.1713 37.5956 40.852C36.8936 41.3229 36.199 41.3075 35.5029 40.841C34.5019 40.1713 33.4913 39.5146 32.502 38.8281C32.2008 38.6189 32.0034 38.624 31.6882 38.8354C26.0682 42.601 20.4402 46.3536 14.8011 50.0907C14.3917 50.362 14.4195 50.5411 14.6849 50.8782C16.0398 52.598 17.7874 53.4594 19.9912 53.4528C25.5088 53.4352 31.0272 53.4469 36.5448 53.4469V53.4403C42.2087 53.4403 47.8733 53.4594 53.5372 53.4301C55.6116 53.4191 57.229 52.4445 58.483 50.8153C58.7426 50.4775 58.6717 50.332 58.3368 50.1097H58.3361Z" fill="white"/>
<path d="M28.6106 36.2346C23.7131 32.9807 18.825 29.713 13.9311 26.4533C13.8068 26.3707 13.6803 26.1696 13.5165 26.2808C13.3739 26.3773 13.4529 26.5864 13.4529 26.7443C13.4499 29.9974 13.4507 33.2498 13.4507 36.5029C13.4507 39.7743 13.4492 43.045 13.4543 46.3164C13.4543 46.4904 13.3607 46.731 13.5296 46.8267C13.7037 46.9255 13.8499 46.709 13.9918 46.6147C18.8696 43.3652 23.7401 40.1048 28.6231 36.8641C29.0421 36.5863 28.9879 36.4846 28.6106 36.2338V36.2346Z" fill="white"/>
<path d="M14.7454 22.9727C21.8928 27.7284 29.0352 32.4936 36.1717 37.2654C36.451 37.4526 36.6448 37.4731 36.9344 37.2786C44.0723 32.5031 51.2154 27.7357 58.3636 22.9763C58.6744 22.7694 58.7314 22.6217 58.4916 22.308C57.2171 20.6401 55.5712 19.6764 53.4478 19.6706C47.819 19.6552 42.191 19.6655 36.5622 19.6655C30.9334 19.6655 25.3053 19.6552 19.6766 19.6706C17.5546 19.6764 15.9043 20.6328 14.6306 22.3029C14.3995 22.6056 14.42 22.7555 14.7439 22.9712L14.7454 22.9727Z" fill="white"/>
<path d="M59.6704 36.5776C59.6704 33.307 59.6719 30.0356 59.6661 26.7649C59.6661 26.5953 59.7633 26.3569 59.5754 26.2655C59.427 26.1931 59.288 26.3847 59.1564 26.4724C54.2786 29.7226 49.4066 32.9816 44.5229 36.2223C44.1003 36.5031 44.1083 36.6091 44.5288 36.8877C49.3971 40.1188 54.253 43.369 59.1147 46.6097C59.2602 46.7062 59.4189 46.9212 59.5783 46.8364C59.7728 46.7325 59.6675 46.4708 59.6675 46.2807C59.6734 43.0466 59.6719 39.8117 59.6712 36.5776H59.6704Z" fill="white"/>
<path d="M65.0417 0H8.0783C3.61652 0 0 3.61652 0 8.0783V65.0417C0 69.5035 3.61652 73.12 8.0783 73.12H65.0417C69.5035 73.12 73.12 69.5035 73.12 65.0417V8.0783C73.12 3.61652 69.5035 0 65.0417 0ZM63.0039 47.0754C63.0009 52.4695 58.8258 56.7791 53.4346 56.8004C42.1961 56.845 30.9568 56.8493 19.7183 56.7982C14.2438 56.7733 10.1147 52.4826 10.114 47.0023C10.1125 40.0581 10.1125 33.1139 10.114 26.1689C10.1154 21.1697 13.378 17.2688 18.2924 16.4154C18.8825 16.3131 19.4931 16.2977 20.0941 16.2963C25.5949 16.2875 31.0957 16.2911 36.5958 16.2911C42.1332 16.2911 47.6706 16.2729 53.2072 16.2977C56.8274 16.3138 59.6396 17.8698 61.5875 20.9248C62.5732 22.4705 63.0082 24.1874 63.0068 26.0227C63.0009 33.04 63.0075 40.0573 63.0039 47.0754Z" fill="white"/>
</svg>
