<svg width="74" height="74" viewBox="0 0 74 74" fill="none" xmlns="http://www.w3.org/2000/svg">
<path d="M65.0444 0H8.07863C3.61667 0 0 3.61663 0 8.07855V65.0437C0 69.5057 3.61667 73.1223 8.07863 73.1223H30.1962V47.5295H20.8971V36.9428H30.1962V28.8738C30.1962 19.6955 35.6636 14.6237 44.0288 14.6237C48.036 14.6237 52.2259 15.3389 52.2259 15.3389V24.3512H47.6082C43.0585 24.3512 41.6399 27.1752 41.6399 30.0708V36.9407H51.7982L50.1726 47.5266L41.6392 47.5288V73.1216H65.0437C69.5056 73.1216 73.1223 69.5049 73.1223 65.043V8.07855C73.1223 3.61663 69.5056 0 65.0437 0H65.0444Z" fill="white"/>
</svg>
