<svg width="27" height="28" viewBox="0 0 27 28" fill="none" xmlns="http://www.w3.org/2000/svg">
<path d="M26 3.54016C26 2.65107 25.9994 2.2062 25.8291 1.86662C25.6793 1.56791 25.4412 1.32523 25.1472 1.17303C24.8129 1 24.3745 1 23.4994 1H3.49939C2.62431 1 2.1872 1 1.85297 1.17303C1.55896 1.32523 1.3201 1.56791 1.1703 1.86662C1 2.2062 1 2.65107 1 3.54016V4.71056C1 5.09885 1 5.29314 1.04317 5.47584C1.08145 5.63782 1.14474 5.79255 1.23041 5.93459C1.32701 6.09475 1.46236 6.23226 1.73242 6.50665L9.64296 14.5438C9.91317 14.8183 10.0476 14.9548 10.1442 15.115C10.2299 15.2571 10.294 15.4123 10.3323 15.5743C10.375 15.7552 10.375 15.9472 10.375 16.3276V23.8775C10.375 25.2383 10.375 25.9192 10.6571 26.329C10.9034 26.6868 11.2834 26.9255 11.7086 26.9893C12.1955 27.0624 12.7949 26.7584 13.9929 26.1498L15.2429 25.5148C15.7445 25.26 15.9947 25.1321 16.178 24.942C16.3401 24.7739 16.464 24.572 16.5396 24.3496C16.6249 24.098 16.625 23.8124 16.625 23.2425V16.3394C16.625 15.9511 16.625 15.757 16.6682 15.5743C16.7064 15.4123 16.7697 15.2571 16.8554 15.115C16.9514 14.9559 17.0854 14.8197 17.3521 14.5488L17.3574 14.5438L25.268 6.50665C25.5382 6.23209 25.6726 6.0948 25.7692 5.93459C25.8549 5.79255 25.919 5.63782 25.9573 5.47584C26 5.295 26 5.1028 26 4.72238V3.54016Z" stroke="white" stroke-width="2" stroke-linecap="round" stroke-linejoin="round"/>
</svg>
