<svg width="67" height="66" viewBox="0 0 67 66" fill="none" xmlns="http://www.w3.org/2000/svg">
<rect width="67" height="66" fill="#CE6C6C"/>
<path d="M-8616 -2946C-8616 -2947.1 -8615.1 -2948 -8614 -2948H10582C10583.1 -2948 10584 -2947.1 10584 -2946V18874C10584 18875.1 10583.1 18876 10582 18876H-8614C-8615.1 18876 -8616 18875.1 -8616 18874V-2946Z" fill="#127F83"/>
<g clip-path="url(#clip0_0_1)">
<rect width="1440" height="1067" transform="translate(-1256 -67)" fill="#0B3F61"/>
<rect width="67" height="66" rx="14" fill="white" fill-opacity="0.5"/>
<path d="M46 38.5939V30.4466C46 29.6619 45.9993 29.2693 45.9019 28.9042C45.8155 28.5806 45.6737 28.2744 45.4818 27.9976C45.2653 27.6854 44.9643 27.4265 44.3611 26.9097L37.1611 20.7419C36.0412 19.7825 35.4813 19.303 34.8511 19.1206C34.2958 18.9598 33.7039 18.9598 33.1486 19.1206C32.5189 19.3029 31.9598 19.7819 30.8415 20.7398L23.6392 26.9097C23.036 27.4265 22.7351 27.6854 22.5186 27.9976C22.3267 28.2744 22.1838 28.5806 22.0975 28.9042C22 29.2693 22 29.6619 22 30.4466V38.5939C22 39.9624 22 40.6464 22.2284 41.1862C22.5328 41.9059 23.1165 42.4783 23.8516 42.7764C24.4029 43 25.1018 43 26.4996 43C27.8974 43 28.5971 43 29.1484 42.7764C29.8835 42.4783 30.467 41.906 30.7715 41.1863C30.9998 40.6466 31 39.9623 31 38.5938V37.1253C31 35.5032 32.3431 34.1882 34 34.1882C35.6569 34.1882 37 35.5032 37 37.1253V38.5938C37 39.9623 37 40.6466 37.2284 41.1863C37.5328 41.906 38.1165 42.4783 38.8516 42.7764C39.4029 43 40.1018 43 41.4996 43C42.8974 43 43.5971 43 44.1484 42.7764C44.8835 42.4783 45.467 41.9059 45.7715 41.1862C45.9998 40.6464 46 39.9624 46 38.5939Z" stroke="white" stroke-width="2" stroke-linecap="round" stroke-linejoin="round"/>
</g>
<defs>
<clipPath id="clip0_0_1">
<rect width="1440" height="1067" fill="white" transform="translate(-1256 -67)"/>
</clipPath>
</defs>
</svg>
