<svg width="74" height="74" viewBox="0 0 74 74" fill="none" xmlns="http://www.w3.org/2000/svg">
<path d="M59.7143 23.5218C59.7143 22.5786 59.4972 21.6617 59.2157 20.7791C58.5444 18.6769 57.2582 16.9871 55.5195 15.6417C53.7609 14.2809 51.7501 13.5483 49.5412 13.5402C40.932 13.5081 32.3221 13.5271 23.713 13.5271C22.7507 13.5271 21.8133 13.7333 20.9132 14.0214C18.7935 14.6992 17.0839 15.9941 15.7371 17.7541C14.388 19.5171 13.667 21.53 13.6597 23.7427C13.6341 32.3152 13.6509 40.8886 13.6473 49.4612C13.6473 50.4432 13.8469 51.3996 14.1387 52.3165C14.8136 54.4362 16.107 56.1465 17.8656 57.4963C19.627 58.8483 21.6393 59.5744 23.8512 59.5817C32.4786 59.6087 41.1068 59.5949 49.7342 59.5897C50.6753 59.5897 51.5914 59.3711 52.4755 59.0867C54.5587 58.4162 56.2324 57.1453 57.5741 55.427C58.9561 53.6568 59.6807 51.6336 59.7027 49.4041C59.7458 45.1273 59.7151 40.8498 59.7151 36.5723C59.7151 32.2217 59.7165 27.8717 59.7143 23.5211V23.5218ZM51.16 36.5811C51.2624 44.6557 44.6502 50.6121 37.6782 51.0537C28.8818 51.6116 21.6276 44.3515 22.1877 35.5537C22.6191 28.7762 28.5031 21.5169 37.771 22.0836C44.7006 22.5069 51.2719 28.4647 51.16 36.5811ZM55.4376 21.5322C55.3688 23.8158 53.834 25.1992 51.7779 25.2292C49.7985 25.2577 47.9947 23.758 48.0802 21.3034C48.149 19.3218 49.7803 17.8389 51.7399 17.8192C53.7748 17.7987 55.5078 19.4198 55.4376 21.533V21.5322Z" fill="white"/>
<path d="M36.688 27.1274C31.4344 27.1699 27.4332 31.3413 27.2621 36.1709C27.0632 41.7902 31.5375 45.8432 36.3473 45.9836C41.9044 46.146 45.9823 41.7039 46.1081 36.84C46.2492 31.3852 41.8108 27.1384 36.6873 27.1274H36.688Z" fill="white"/>
<path d="M65.164 0H8.20061C3.73883 0 0.122314 3.61652 0.122314 8.0783V65.0417C0.122314 69.5035 3.73883 73.12 8.20061 73.12H65.164C69.6258 73.12 73.2423 69.5035 73.2423 65.0417V8.0783C73.2423 3.61652 69.6258 0 65.164 0ZM64.7604 48.2248L64.6551 51.0692C64.6544 51.0772 64.6536 51.086 64.6529 51.0948C64.6134 52.0146 64.3765 52.8957 64.1067 53.7673C63.1503 56.8523 61.3713 59.38 58.8508 61.3799C57.2364 62.6609 55.4222 63.5596 53.4275 64.1189C53.4195 64.1211 53.4114 64.1233 53.4041 64.1255C52.126 64.4787 50.8025 64.6381 49.4769 64.6381H23.0849C22.7844 64.6381 22.489 64.584 22.1921 64.5357C22.16 64.5306 22.1256 64.5306 22.0927 64.5291C21.1743 64.4809 20.2888 64.252 19.4209 63.9756C16.3667 63.0024 13.8469 61.2395 11.8617 58.73C10.5829 57.1133 9.68202 55.3014 9.12266 53.3067C9.11973 53.2972 9.11754 53.2877 9.11461 53.2782C8.76364 52.0022 8.6035 50.6817 8.6035 49.3582V24.8959L8.7088 22.0515C8.70953 22.0435 8.71026 22.0347 8.71099 22.0259C8.75047 21.1061 8.98738 20.225 9.2572 19.3534C10.2136 16.2685 11.9926 13.7407 14.5131 11.7409C16.1276 10.4598 17.9417 9.56117 19.9364 9.0018C19.9444 8.99961 19.9525 8.99742 19.9598 8.99522C21.2372 8.64205 22.5599 8.48265 23.8856 8.48265H49.3496L51.2054 8.58868C51.2273 8.59014 51.25 8.59087 51.2727 8.5916C52.1911 8.63986 53.0766 8.86872 53.9445 9.14512C56.9987 10.1183 59.5184 11.882 61.5036 14.3907C62.7825 16.0074 63.6833 17.8193 64.2427 19.8141C64.2456 19.8236 64.2478 19.8331 64.2508 19.8426C64.6017 21.1185 64.7619 22.4391 64.7619 23.7625V48.2248H64.7604Z" fill="white"/>
</svg>
