<svg width="82" height="61" viewBox="0 0 82 61" fill="none" xmlns="http://www.w3.org/2000/svg">
<path d="M27.2475 29.3665C28.1263 29.3747 28.6073 29.0665 28.9606 28.2742C30.9602 23.8016 34.3397 20.6515 38.8125 18.8403C43.4776 16.9512 48.2681 16.9594 52.9376 18.9978C58.4288 21.3956 62.0718 25.4909 63.485 31.3136C64.9139 37.2038 63.7997 42.6514 59.9118 47.424C59.8465 47.5035 59.7871 47.5874 59.7114 47.6549C58.5134 48.7235 58.0614 49.9956 57.9716 51.6545C57.8061 54.6976 55.8658 56.7442 53.3125 58.1796C48.6674 60.7898 43.5949 61.0943 38.431 60.7408C35.6297 60.5485 32.8931 59.9997 30.2967 58.8985C27.5021 57.714 25.2835 55.8977 24.1144 53.006C23.6787 51.9315 23.7893 51.7822 24.8871 51.6048C26.9721 51.2676 29.0578 50.935 31.1332 50.551C31.8732 50.4137 32.3416 50.4857 32.6155 51.3085C33.135 52.8709 34.4043 53.6818 35.8947 54.1192C39.0575 55.0504 42.2655 55.1425 45.4832 54.4073C46.2499 54.2313 46.9677 53.9068 47.609 53.4375C49.0423 52.3897 48.9992 50.7374 47.5043 49.7424C46.8727 49.3213 46.1608 49.077 45.423 48.9277C42.4852 48.3374 39.5451 47.7574 36.6051 47.173C34.6975 46.7928 32.8084 46.3562 31.0337 45.5311C27.4909 43.8848 25.7696 40.8684 26.1311 36.9632C26.2091 36.1248 25.812 35.7023 24.9413 35.6971C23.7143 35.6911 22.4859 35.7238 21.2612 35.677C20.47 35.6466 20.1716 35.9347 20.1857 36.7352C20.2243 38.9125 20.202 41.092 20.202 43.2707C20.202 48.7183 20.1834 54.163 20.2228 59.6106C20.2287 60.5893 19.9266 60.9198 18.9387 60.8908C16.6243 60.8255 14.3041 60.8151 11.9897 60.8723C10.9736 60.8968 10.7219 60.5047 10.7242 59.5586C10.7546 52.0711 10.7464 44.5814 10.7487 37.0946C10.7487 35.5916 10.7427 35.5916 9.22185 35.5812C6.56384 35.5649 3.90657 35.5218 1.24856 35.5485C0.320743 35.5567 -0.0496417 35.2359 0.00528508 34.2988C0.0832217 33.0104 0.127757 31.7131 0.092871 30.4239C0.0720879 29.6583 0.315547 29.4148 1.07858 29.4192C4.21238 29.4356 13.0036 29.3843 14.2632 29.3843C14.2632 29.3724 22.9172 29.3227 27.2452 29.362L27.2475 29.3665ZM41.2679 28.4553C44.5353 28.4739 47.724 28.9351 50.7539 30.2019C53.2071 31.2274 55.3032 32.6732 56.3661 35.2508C56.781 36.2555 56.7157 36.4085 55.6669 36.6067C53.4587 37.0233 51.243 37.4072 49.0371 37.8402C48.473 37.9508 48.156 37.8134 47.8985 37.2951C47.41 36.3127 46.6025 35.6629 45.5945 35.224C43.4791 34.3032 41.2768 34.3968 39.0627 34.6277C37.9708 34.7399 36.9094 34.9953 36.0268 35.7119C34.6938 36.7968 34.8288 38.1587 36.3661 38.9489C37.1855 39.3699 38.0428 39.6989 38.9565 39.8704C42.2707 40.4934 45.5908 41.0853 48.8901 41.7796C51.1673 42.2571 53.3919 42.9744 55.1948 44.5249C55.8881 45.1212 56.2072 44.8658 56.6363 44.3081C60.9131 38.7573 60.3691 30.6133 55.2579 25.7976C48.824 19.7374 38.7472 21.0146 34.0005 28.4204C33.8409 28.67 33.547 28.9596 33.7385 29.2432C33.9411 29.5455 34.3108 29.3331 34.5913 29.264C36.7847 28.7205 39.0115 28.4635 41.2664 28.4576L41.2679 28.4553Z" fill="white"/>
<path d="M74.7354 40.6204C75.451 40.6204 76.1665 40.61 76.882 40.6226C77.72 40.6368 78.1862 40.2061 78.2129 39.4055C78.2663 37.8409 78.2827 36.2741 78.2582 34.7102C78.2441 33.8688 77.6488 33.5317 76.8843 33.5072C75.6595 33.4686 74.4311 33.4849 73.2064 33.4455C71.6157 33.3965 71.0353 32.8737 70.7532 31.2891C70.2485 28.436 69.1181 25.8236 67.6313 23.3582C66.6456 21.7245 66.7213 20.9545 68.1123 19.6186C68.8731 18.8871 69.6168 18.1401 70.3546 17.3841C71.2112 16.5101 71.2357 16.0014 70.4036 15.117C69.4691 14.1264 68.4775 13.1907 67.5415 12.2023C66.8505 11.4731 66.2069 11.5221 65.5196 12.1823C64.5859 13.0749 63.6514 13.9675 62.6961 14.8393C61.7683 15.6866 60.9867 15.7437 59.9282 15.0702C57.15 13.3014 54.2002 11.9558 50.9618 11.2511C50.0006 11.0424 49.4773 10.3236 49.4758 9.30848C49.4699 7.98073 49.4921 6.65298 49.484 5.32598C49.478 4.16606 49.1203 3.74501 48.0039 3.7064C46.5751 3.65739 45.1418 3.65739 43.7129 3.66927C42.8193 3.67521 42.3205 4.14749 42.3079 5.06236C42.2915 6.32253 42.3056 7.58048 42.2811 8.84065C42.2522 10.2946 41.6844 10.9095 40.2474 11.1917C37.2071 11.7843 34.3717 12.9056 31.7567 14.5638C30.5773 15.313 29.8803 15.2625 28.8656 14.2556C27.9965 13.392 27.1466 12.5075 26.296 11.6268C25.5129 10.8137 24.9035 10.7528 24.1026 11.5043C23.0597 12.4808 22.0518 13.4959 21.0319 14.4984C20.3676 15.1519 20.4025 15.7913 21.0542 16.4447C21.8699 17.2616 22.6611 18.1052 23.4709 18.9302C24.5747 20.0515 24.6318 20.9604 23.7671 22.2815C23.2297 23.1043 22.7532 23.9768 22.3175 24.859C22.0458 25.4107 21.737 25.5659 21.1952 25.2778C20.8946 25.1182 20.5821 24.9793 20.2711 24.8404C18.4207 24.0154 18.3598 23.9723 19.4635 22.2243C20.0195 21.3421 19.9727 20.7763 19.249 20.0329C18.4541 19.2183 17.5381 18.4846 17.1084 17.341C16.3802 15.3984 16.6259 13.6259 18.0466 12.1325C19.3589 10.7536 20.7469 9.43843 22.1883 8.1946C23.8829 6.73244 26.6307 6.91215 28.381 8.50723C28.9347 9.01144 29.481 9.53274 29.9575 10.1068C30.4481 10.6971 30.8875 10.8196 31.6075 10.4276C33.5864 9.34709 35.6862 8.54064 37.8677 7.96439C38.44 7.81291 38.6508 7.55003 38.6241 6.97601C38.5936 6.29803 38.63 5.61559 38.6426 4.93389C38.6894 1.99919 40.6727 0.0298471 43.6187 0.00979729C45.0824 -0.000598935 46.5498 -0.0124804 48.0143 0.0305896C51.3136 0.126383 53.1292 2.04003 53.1477 5.33266C53.1663 8.5696 52.7343 7.77578 55.6209 8.81911C57.1277 9.36269 58.6137 9.97755 59.9698 10.8367C60.7284 11.3164 61.2761 11.2266 61.8403 10.5954C62.2025 10.1907 62.607 9.8216 62.9952 9.43917C64.9911 7.48245 67.7115 7.3577 69.7831 9.26169C71.2075 10.5709 72.5473 11.9885 73.8128 13.4551C75.2134 15.0791 74.9596 17.9685 73.3816 19.6639C72.9421 20.1354 72.4946 20.6173 71.9809 21.0035C71.2223 21.5753 71.2372 22.1656 71.6454 22.9476C72.6408 24.8493 73.4565 26.8321 73.9924 28.9172C74.1394 29.4868 74.4608 29.7957 75.0694 29.7957C75.8874 29.7957 76.7046 29.7957 77.5226 29.8343C79.8288 29.9428 81.8648 31.9663 81.9204 34.2765C81.965 36.1471 81.9509 38.0221 81.8819 39.8912C81.7943 42.2682 79.7516 44.2435 77.366 44.3289C76.6178 44.3556 75.8674 44.3534 75.1177 44.3348C74.3383 44.3163 73.887 44.6126 73.6191 45.4012C72.8323 47.7322 72.8115 47.6928 70.5343 46.5997C69.7557 46.2262 69.5731 45.7948 69.8722 44.9928C70.2158 44.0712 70.4652 43.1096 70.7005 42.1539C70.9626 41.0942 71.6291 40.6241 72.6898 40.6308C73.3712 40.6345 74.0533 40.6308 74.7339 40.6308C74.7339 40.6264 74.7339 40.6226 74.7339 40.6182L74.7354 40.6204Z" fill="white"/>
</svg>
