<svg width="238" height="176" viewBox="0 0 238 176" fill="none" xmlns="http://www.w3.org/2000/svg">
<path d="M79.1373 84.8792C81.6906 84.9028 83.086 84.0115 84.1132 81.7211C89.9204 68.7933 99.7356 59.6908 112.728 54.4548C126.278 48.9945 140.19 49.0181 153.752 54.9093C169.701 61.8395 180.282 73.6752 184.385 90.5048C188.536 107.529 185.3 123.273 174.006 137.068C173.816 137.298 173.644 137.54 173.424 137.735C169.945 140.823 168.632 144.5 168.371 149.294C167.89 158.089 162.255 164.004 154.839 168.154C141.348 175.698 126.616 176.577 111.617 175.556C103.482 175.001 95.5316 173.413 87.9906 170.232C79.8736 166.808 73.4311 161.56 70.0346 153.201C68.7699 150.096 69.0905 149.665 72.2791 149.152C78.3357 148.178 84.3923 147.216 90.4192 146.106C92.5687 145.71 93.9284 145.917 94.7241 148.296C96.2323 152.812 99.9197 155.155 104.248 156.419C113.434 159.11 122.751 159.376 132.097 157.251C134.323 156.743 136.408 155.805 138.272 154.447C142.435 151.419 142.31 146.643 137.969 143.768C136.135 142.552 134.068 141.844 131.925 141.413C123.392 139.707 114.853 138.03 106.315 136.342C100.775 135.244 95.2882 133.981 90.1342 131.596C79.8439 126.838 74.8443 118.119 75.8953 106.833C76.1209 104.409 74.969 103.189 72.4394 103.173C68.8767 103.155 65.3081 103.25 61.7513 103.114C59.4534 103.025 58.5865 103.858 58.628 106.172C58.7409 112.464 58.6756 118.763 58.6756 125.061C58.6756 140.805 58.6221 156.542 58.7349 172.286C58.7527 175.114 57.8739 176.07 55.006 175.987C48.2844 175.798 41.5449 175.769 34.8233 175.934C31.8722 176.005 31.1418 174.872 31.1478 172.138C31.2368 150.498 31.2131 128.851 31.219 107.211C31.219 102.866 31.2012 102.866 26.7835 102.836C19.0643 102.789 11.3451 102.665 3.62595 102.742C0.930174 102.766 -0.144573 101.839 0.0157484 99.1292C0.241386 95.4044 0.372018 91.6559 0.271075 87.9311C0.211697 85.7174 0.918298 85.015 3.13311 85.0268C12.2358 85.074 37.7685 84.9264 41.4262 84.9264C41.4262 84.891 66.561 84.7493 79.1314 84.8615L79.1373 84.8792ZM119.859 82.2465C129.348 82.2996 138.611 83.6337 147.41 87.2936C154.536 90.2569 160.622 94.4363 163.71 101.886C164.915 104.79 164.725 105.233 161.679 105.806C155.266 107.01 148.83 108.12 142.423 109.371C140.784 109.69 139.863 109.294 139.115 107.795C137.696 104.956 135.351 103.078 132.423 101.809C126.278 99.1469 119.883 99.4185 113.452 100.086C110.281 100.41 107.199 101.148 104.634 103.22C100.763 106.355 101.155 110.292 105.62 112.576C108.001 113.792 110.489 114.743 113.143 115.239C122.768 117.039 132.411 118.751 141.995 120.758C148.61 122.139 155.07 124.211 160.307 128.692C162.32 130.415 163.247 129.678 164.494 128.066C176.916 112.022 175.336 88.486 160.491 74.5666C141.805 57.0521 112.538 60.7416 98.7499 82.1461C98.2868 82.8663 97.4317 83.7045 97.9899 84.525C98.5778 85.3987 99.6525 84.7848 100.466 84.5841C106.837 83.0138 113.304 82.2701 119.853 82.2524L119.859 82.2465Z" fill="white"/>
<path d="M217.061 117.405C219.139 117.405 221.218 117.376 223.296 117.411C225.73 117.452 227.084 116.207 227.161 113.893C227.316 109.371 227.363 104.843 227.292 100.322C227.251 97.8896 225.523 96.9156 223.302 96.8447C219.745 96.7326 216.176 96.7798 212.62 96.6676C208 96.526 206.314 95.0148 205.494 90.434C204.028 82.1874 200.744 74.6374 196.427 67.5124C193.565 62.7899 193.785 60.5645 197.823 56.7039C200.032 54.5906 202.193 52.43 204.336 50.2459C206.824 47.7194 206.896 46.2495 204.479 43.6935C201.765 40.8305 198.885 38.1269 196.166 35.2698C194.159 33.1624 192.289 33.3041 190.293 35.2108C187.58 37.7904 184.866 40.3701 182.093 42.8907C179.398 45.3405 177.129 45.5057 174.053 43.5577C165.984 38.4457 157.416 34.5555 148.01 32.519C145.219 31.9169 143.699 29.839 143.693 26.9052C143.676 23.0682 143.741 19.2312 143.717 15.3942C143.699 12.0412 142.66 10.8252 139.418 10.7131C135.268 10.5714 131.105 10.5714 126.955 10.6068C124.36 10.6245 122.911 11.9881 122.875 14.6327C122.828 18.2749 122.869 21.9112 122.798 25.5534C122.715 29.7564 121.064 31.5332 116.89 32.3478C108.06 34.0597 99.8247 37.3005 92.2302 42.0938C88.8041 44.2602 86.7793 44.1126 83.8341 41.2024C81.3106 38.7054 78.8404 36.1494 76.3703 33.6052C74.0961 31.2557 72.3266 31.0786 69.999 33.251C66.9707 36.0726 64.0434 39.0065 61.0804 41.9049C59.1506 43.7938 59.2515 45.6415 61.1457 47.5305C63.5149 49.8917 65.8128 52.3297 68.1642 54.7145C71.3706 57.9553 71.5369 60.5822 69.0252 64.4015C67.4636 66.7804 66.08 69.301 64.8153 71.8511C64.0255 73.445 63.1289 73.8936 61.5554 73.0613C60.6826 72.6008 59.7741 72.1994 58.8715 71.798C53.4978 69.4132 53.3196 69.2892 56.5261 64.2362C58.1412 61.6861 58.0046 60.0509 55.9026 57.9022C53.5928 55.5469 50.9326 53.4277 49.6857 50.1219C47.5718 44.5081 48.2844 39.3843 52.4112 35.0691C56.2232 31.0845 60.255 27.283 64.4412 23.688C69.3637 19.4614 77.3441 19.9809 82.4269 24.5912C84.036 26.0492 85.6214 27.5545 87.0049 29.2133C88.43 30.9193 89.7067 31.2734 91.7968 30.1401C97.5446 27.0173 103.643 24.6856 109.978 23.021C111.641 22.5841 112.253 21.8226 112.175 20.1639C112.086 18.204 112.193 16.2324 112.229 14.2608C112.365 5.77809 118.125 0.0875277 126.682 0.028497C130.933 -0.00101835 135.196 -0.0364368 139.448 0.0875277C149.031 0.364972 154.304 5.89615 154.358 15.4119C154.411 24.7683 153.158 22.472 161.542 25.4884C165.919 27.0586 170.235 28.8355 174.172 31.3207C176.375 32.7079 177.967 32.4482 179.605 30.6241C180.656 29.4553 181.832 28.3868 182.96 27.283C188.756 21.6278 196.659 21.2677 202.674 26.7694C206.812 30.5533 210.702 34.65 214.377 38.8884C218.445 43.5813 217.708 51.9342 213.124 56.8337C211.848 58.1973 210.547 59.5905 209.057 60.7061C206.854 62.359 206.896 64.065 208.083 66.3259C210.975 71.8216 213.344 77.5535 214.9 83.5805C215.327 85.2275 216.26 86.1189 218.029 86.1189C220.404 86.1189 222.779 86.1189 225.154 86.231C231.852 86.5439 237.766 92.3938 237.927 99.0702C238.057 104.477 238.016 109.896 237.814 115.298C237.559 122.169 231.627 127.877 224.697 128.125C222.524 128.202 220.345 128.196 218.166 128.143C215.903 128.09 214.591 128.946 213.813 131.224C211.527 137.96 211.468 137.847 204.853 134.689C202.591 133.609 202.062 132.363 202.929 130.044C203.927 127.381 204.651 124.601 205.334 121.838C206.094 118.775 208.03 117.417 211.111 117.435C213.089 117.446 215.072 117.435 217.049 117.435C217.049 117.423 217.049 117.411 217.049 117.399L217.061 117.405Z" fill="white"/>
</svg>
