<svg width="353" height="81" viewBox="0 0 353 81" fill="none" xmlns="http://www.w3.org/2000/svg">
<mask id="mask0_8_2038" style="mask-type:luminance" maskUnits="userSpaceOnUse" x="0" y="23" width="57" height="31">
<path d="M0.0709229 23.3566H56.7982V53.3573H0.0709229V23.3566Z" fill="white"/>
</mask>
<g mask="url(#mask0_8_2038)">
<path d="M0.208618 36.9701C13.1632 19.803 42.4757 18.681 56.6189 34.9514C56.4271 35.3309 54.4501 37.4122 53.9454 37.7709C47.3597 30.6304 37.7376 27.0352 28.053 27.4272C19.5487 27.74 10.9151 30.9474 5.21777 37.4163C12.842 49.9121 32.057 53.0027 43.4141 43.8269C44.3901 44.7778 45.3285 45.6954 46.2753 46.6172C36.2695 55.209 20.3829 55.1048 9.6722 47.7641C5.67656 44.9864 2.51091 41.2243 0.208618 36.9701Z" fill="white"/>
</g>
<mask id="mask1_8_2038" style="mask-type:luminance" maskUnits="userSpaceOnUse" x="0" y="30" width="57" height="31">
<path d="M0.0709229 30.7681H56.5396V60.6228H0.0709229V30.7681Z" fill="white"/>
</mask>
<g mask="url(#mask1_8_2038)">
<path d="M0.179321 48.9904C1.00931 47.9936 1.86016 47.0385 2.76106 46.1709C2.94457 46.221 3.01131 46.3211 3.08638 46.4045C6.96107 50.6212 11.72 53.3989 17.1921 55.0172C28.9413 58.4415 42.9844 55.818 51.3594 46.5505C46.3211 38.2172 35.8148 34.1381 26.3053 35.0682C21.5089 35.5562 17.1545 37.1703 13.3549 40.1775C13.2548 40.2567 13.1714 40.3568 12.9545 40.3943C12.0536 39.5101 11.1235 38.5884 10.2018 37.6791C10.2477 37.4331 10.4312 37.3496 10.5688 37.2329C19.2733 30.1216 32.0152 29.179 42.1628 33.6251C48.2814 36.2485 53.2863 41.1618 56.3769 47.0051C43.4265 63.972 14.2141 65.2274 0.179321 48.9904Z" fill="white"/>
</g>
<path d="M144.148 45.3994C142.913 45.4369 141.774 45.4286 140.657 45.4119C140.506 44.9698 140.506 24.1282 140.644 23.7236H145.057C146.008 26.9185 147.084 30.0674 147.926 33.3415C148.727 30.0841 149.753 26.931 150.667 23.7236H155.075C155.209 24.1157 155.221 44.9156 155.096 45.341C154.762 45.4452 152.126 45.4619 151.613 45.3493C151.526 44.6069 151.584 43.8395 151.576 43.0762C151.563 42.3046 151.576 41.5289 151.576 40.7572C151.563 39.214 151.576 37.6708 151.643 36.1235C151.705 34.5803 151.793 33.0412 151.909 31.5022C152.001 29.9507 152.235 28.4367 152.264 26.8726C151.388 29.934 150.512 32.9954 149.628 36.0943C148.473 36.1652 147.347 36.1235 146.166 36.1193C145.261 33.0538 144.369 30.0132 143.476 26.9727C143.756 31.0518 144.168 35.1183 144.152 39.2057C144.148 41.2494 144.152 43.2889 144.152 45.4035L144.148 45.3994Z" fill="white"/>
<mask id="mask2_8_2038" style="mask-type:luminance" maskUnits="userSpaceOnUse" x="69" y="23" width="15" height="23">
<path d="M69.5651 23.3566H83.3746V45.8289H69.5651V23.3566Z" fill="white"/>
</mask>
<g mask="url(#mask2_8_2038)">
<path d="M83.3622 34.5719C83.3622 36.2903 83.3872 38.0087 83.3538 39.7229C83.358 42.997 80.7137 45.4619 77.5481 45.6621C73.8485 46.0876 70.2074 44.2733 69.7862 40.3026C69.5985 36.8951 69.7695 33.4667 69.7111 30.0508C69.611 27.298 71.0374 24.6662 73.7651 23.8363C75.6128 23.2148 77.5022 23.2065 79.3498 23.8404C81.6229 24.6245 82.8992 26.2637 83.2871 28.6118C83.358 29.0665 83.3705 29.5211 83.3705 29.9799C83.3705 31.5106 83.3705 33.0412 83.3705 34.5719C83.3663 34.5719 83.3663 34.5719 83.3622 34.5719ZM79.55 34.5761C79.55 33.475 79.55 32.3781 79.55 31.277C79.5584 29.3709 79.7711 27.4023 77.4938 26.8601C75.2291 26.4347 73.5232 27.3439 73.5399 29.8047C73.5399 32.962 73.5399 36.1235 73.5399 39.2808C73.5399 39.5978 73.5649 39.9106 73.6358 40.2192C73.9903 42.0377 75.7421 42.5841 77.4021 42.2713C78.5407 42.0544 79.208 41.3537 79.4583 40.2317C79.5459 39.8522 79.55 39.4685 79.55 39.0806C79.5542 37.5791 79.55 36.0818 79.55 34.5803V34.5761Z" fill="white"/>
</g>
<mask id="mask3_8_2038" style="mask-type:luminance" maskUnits="userSpaceOnUse" x="158" y="23" width="15" height="23">
<path d="M158.67 23.3566H172.647V45.8289H158.67V23.3566Z" fill="white"/>
</mask>
<g mask="url(#mask3_8_2038)">
<path d="M158.871 34.5719C158.871 32.9996 158.875 31.4272 158.871 29.8506C158.833 27.5441 159.888 25.1793 162.07 24.1991C164.418 23.098 166.833 23.073 169.193 24.1407C171.562 25.1584 172.588 27.5817 172.526 30.055C172.522 33.1455 172.526 36.2319 172.522 39.3225C172.522 40.1316 172.413 40.9241 172.142 41.6832C170.945 45.3744 166.478 46.4087 163.091 45.3368C160.731 44.5694 159.35 42.9386 158.954 40.4903C158.883 40.0482 158.871 39.6061 158.871 39.164C158.871 37.6333 158.871 36.1026 158.871 34.5719ZM162.695 34.501C162.695 35.5563 162.691 36.6157 162.695 37.6709C162.695 39.652 162.424 41.6957 164.814 42.2588C166.411 42.5841 168.197 42.1003 168.58 40.3318C168.655 40.0274 168.697 39.7146 168.697 39.3976C168.697 36.1652 168.697 32.937 168.697 29.7046C168.689 27.298 166.933 26.4347 164.739 26.8601C163.221 27.1312 162.62 28.5409 162.695 29.9507C162.695 31.4647 162.695 32.9829 162.695 34.4969V34.501Z" fill="white"/>
</g>
<path d="M91.5286 37.2037C91.5202 39.9606 91.5494 42.6258 91.516 45.391C90.2273 45.4369 89.0052 45.4327 87.7957 45.3994C87.6914 45.0282 87.6664 24.2825 87.7581 23.7862C87.8833 23.6611 88.0501 23.6903 88.2044 23.6903C90.5442 23.6903 92.8841 23.6736 95.2239 23.6944C98.5814 23.6486 101.747 25.8382 102.143 29.2917C102.719 32.9078 100.533 36.2653 96.8797 36.9368C95.299 37.2621 93.6724 37.0703 92.0708 37.1203C91.9164 37.1203 91.7538 37.0995 91.5286 37.2037ZM91.5869 27.2146C91.491 27.6901 91.5077 33.2706 91.612 33.6127C91.6745 33.6293 91.7413 33.6585 91.808 33.6585C93.0718 33.6585 94.3355 33.7336 95.5951 33.621C97.4678 33.4959 98.5814 31.644 98.302 29.8756C98.1768 28.2323 96.7045 27.1145 95.0946 27.1479C94.0769 27.1521 93.0551 27.1479 92.0374 27.1479C91.8956 27.1479 91.7496 27.127 91.5911 27.2104L91.5869 27.2146Z" fill="white"/>
<path d="M131.981 27.0603V41.9584C132.131 42.1044 132.315 42.0502 132.478 42.0543C133.566 42.0585 134.659 42.0543 135.748 42.0543C135.919 42.0543 136.094 42.021 136.248 42.1169C136.352 42.4339 136.382 44.7904 136.286 45.3118C136.165 45.4536 136.002 45.4202 135.848 45.4202C131.973 45.4202 128.098 45.4202 124.219 45.4202C124.082 45.4202 123.932 45.441 123.773 45.3076V42.1044C124.499 41.9918 125.212 42.071 125.921 42.0543C126.622 42.0418 127.323 42.0543 128.011 42.0543C128.14 41.6998 128.157 27.5399 128.032 27.0728C126.634 27.0311 125.22 27.0853 123.832 27.0436C123.715 26.6557 123.698 24.245 123.79 23.7862C123.915 23.6569 124.082 23.6902 124.236 23.6902C128.228 23.7403 132.265 23.586 136.24 23.7445C136.361 24.0531 136.386 26.4972 136.261 27.0102C135.568 27.1186 134.855 27.0394 134.146 27.0561C133.441 27.0686 132.74 27.0603 131.981 27.0603Z" fill="white"/>
<path d="M114.126 45.3869H110.306C110.256 39.3642 110.301 33.3499 110.289 27.3481C110.089 27.1938 109.909 27.2397 109.743 27.2397C108.224 27.2355 106.702 27.2397 105.18 27.2355C105.009 27.2355 104.833 27.2772 104.642 27.1437V23.8071C104.775 23.6569 104.942 23.6903 105.092 23.6903C109.834 23.6903 114.568 23.6903 119.306 23.6903C119.448 23.6903 119.594 23.6694 119.719 23.757C119.832 24.1032 119.84 26.7558 119.715 27.2271C117.851 27.2563 116.049 27.2313 114.143 27.2397C114.101 33.3249 114.143 39.3017 114.126 45.3869Z" fill="white"/>
<mask id="mask4_8_2038" style="mask-type:luminance" maskUnits="userSpaceOnUse" x="76" y="51" width="10" height="11">
<path d="M76.8765 51.7974H85.7186V61.0149H76.8765V51.7974Z" fill="white"/>
</mask>
<g mask="url(#mask4_8_2038)">
<path d="M81.2683 60.9941C77.7439 61.1025 76.0047 57.3237 77.3978 54.3583C78.1777 52.7859 79.7001 51.9601 81.5352 52.0518C84.3672 52.1895 85.877 54.4667 85.6435 57.0026C85.5267 59.3341 83.5289 61.1234 81.2641 60.9941H81.2683ZM83.85 56.5063C83.9126 54.6836 82.7156 53.449 80.8721 53.6784C79.967 53.7785 79.3289 54.279 78.9785 55.109C78.2194 56.8983 78.9827 59.4509 81.2558 59.4091C82.9408 59.4675 83.9418 58.0578 83.85 56.5063Z" fill="white"/>
</g>
<mask id="mask5_8_2038" style="mask-type:luminance" maskUnits="userSpaceOnUse" x="143" y="51" width="10" height="11">
<path d="M143.076 51.251H152.685V61.0899H143.076V51.251Z" fill="white"/>
</mask>
<g mask="url(#mask5_8_2038)">
<path d="M145.495 60.8272C144.886 60.8689 144.323 60.9023 143.676 60.8022C144.731 57.9118 145.77 55.0756 146.817 52.2103C147.472 52.1644 148.093 52.1852 148.773 52.1978C149.82 55.0506 150.863 57.8868 151.926 60.7855C151.288 60.9189 150.704 60.8647 150.083 60.823C149.857 60.1932 149.636 59.5759 149.411 58.9461H146.175C145.954 59.5592 145.732 60.1724 145.495 60.8272ZM148.915 57.5072C148.535 56.4228 148.189 55.426 147.839 54.4333C147.805 54.4333 147.772 54.4375 147.739 54.4417C147.397 55.4427 147.009 56.4311 146.696 57.4947C147.451 57.5364 148.143 57.5239 148.915 57.5114V57.5072Z" fill="white"/>
</g>
<mask id="mask6_8_2038" style="mask-type:luminance" maskUnits="userSpaceOnUse" x="128" y="51" width="10" height="11">
<path d="M128.707 51.7974H137.045V61.0149H128.707V51.7974Z" fill="white"/>
</mask>
<g mask="url(#mask6_8_2038)">
<path d="M136.928 55.0673C136.327 55.1173 135.735 55.1298 135.172 55.0631C135.03 54.9255 135.009 54.7795 134.947 54.6502C134.759 54.2623 134.48 53.9537 134.071 53.8118C132.999 53.4365 131.464 53.6033 130.918 55.2091C130.626 56.0683 130.626 56.9525 130.905 57.82C131.502 59.7678 134.4 60.1306 135.126 58.0953C135.723 58.016 136.323 58.0327 136.915 58.0828C136.999 58.2913 136.932 58.4373 136.886 58.5874C136.248 60.7312 133.875 61.336 131.898 60.8564C129.471 60.2432 128.536 57.6323 129.054 55.3092C129.45 53.4073 130.93 51.9016 133.491 52.0559C135.059 52.106 136.498 53.0194 136.899 54.5793C136.936 54.7169 136.986 54.8546 136.928 55.0714V55.0673Z" fill="white"/>
</g>
<mask id="mask7_8_2038" style="mask-type:luminance" maskUnits="userSpaceOnUse" x="158" y="51" width="8" height="11">
<path d="M158.67 51.7974H165.185V61.0149H158.67V51.7974Z" fill="white"/>
</mask>
<g mask="url(#mask7_8_2038)">
<path d="M158.687 58.2078H160.422C160.568 58.3371 160.551 58.4915 160.597 58.6249C160.91 59.4925 162.211 59.8261 162.904 59.2088C163.575 58.5373 163.058 57.6531 162.245 57.3945C161.469 57.0942 160.652 56.8982 159.934 56.4686C158.424 55.6094 158.616 53.4072 159.851 52.5856C161.494 51.5053 164.576 52.0225 164.835 54.2664C164.847 54.3665 164.868 54.4666 164.797 54.5542C164.476 54.646 163.513 54.6585 163.058 54.5792C162.991 54.5208 162.971 54.4374 162.937 54.3582C162.666 53.6533 161.957 53.3488 161.252 53.6366C160.689 53.8702 160.531 54.5792 160.939 55.0339C161.319 55.4092 161.869 55.5427 162.362 55.7137C162.854 55.8638 163.329 56.064 163.792 56.2934C165.511 57.1485 165.356 59.409 164.155 60.3266C163.1 61.19 161.202 61.2067 160.034 60.5518C159.142 60.0597 158.704 59.2923 158.687 58.212V58.2078Z" fill="white"/>
</g>
<mask id="mask8_8_2038" style="mask-type:luminance" maskUnits="userSpaceOnUse" x="92" y="51" width="9" height="11">
<path d="M92.8925 51.251H100.367V61.0899H92.8925V51.251Z" fill="white"/>
</mask>
<g mask="url(#mask8_8_2038)">
<path d="M93.0425 52.2437C93.1885 52.1728 93.322 52.1853 93.4513 52.1853C94.3981 52.1853 95.3448 52.1853 96.2916 52.1853C96.7129 52.1853 97.1258 52.2437 97.5262 52.3605C99.9536 53.032 100.004 56.5772 97.6513 57.3738C96.6837 57.7325 95.7619 57.5073 94.7401 57.6532V60.798C94.1228 60.894 93.5764 60.8898 93.0342 60.8147C92.9383 60.3643 92.9508 52.6024 93.0425 52.2437ZM94.7609 56.1142C95.9246 56.1684 97.7472 56.4687 97.5595 54.7128C97.5095 54.1247 97.18 53.7535 96.6003 53.6868C96.0455 53.6201 95.4866 53.6409 94.9319 53.6701C94.8777 53.6743 94.8277 53.7076 94.7526 53.741C94.7276 54.5251 94.715 55.3009 94.7609 56.1142Z" fill="white"/>
</g>
<mask id="mask9_8_2038" style="mask-type:luminance" maskUnits="userSpaceOnUse" x="105" y="51" width="9" height="11">
<path d="M105.705 51.251H113.179V61.0899H105.705V51.251Z" fill="white"/>
</mask>
<g mask="url(#mask9_8_2038)">
<path d="M110.26 60.8022C109.659 60.8898 109.125 60.8814 108.608 60.823C108.45 60.6187 108.5 60.4101 108.5 60.2141C108.496 58.2413 108.5 56.2643 108.496 54.2915C108.496 54.108 108.525 53.9203 108.42 53.6993C107.657 53.5575 106.848 53.7201 106.031 53.5992C105.951 53.1404 105.976 52.7066 106.01 52.2854C106.368 52.1602 112.241 52.1436 112.679 52.2562C112.779 52.594 112.787 53.1487 112.691 53.595C111.916 53.7201 111.106 53.57 110.26 53.6951V60.8022Z" fill="white"/>
</g>
<mask id="mask10_8_2038" style="mask-type:luminance" maskUnits="userSpaceOnUse" x="119" y="51" width="3" height="11">
<path d="M119.586 51.251H121.721V61.0899H119.586V51.251Z" fill="white"/>
</mask>
<g mask="url(#mask10_8_2038)">
<path d="M121.533 60.8104C121.008 60.8939 120.462 60.8855 119.882 60.8104V52.2186C120.441 52.156 120.975 52.1852 121.475 52.1935C121.646 52.3562 121.609 52.523 121.609 52.6732C121.613 55.2299 121.613 57.7908 121.609 60.3475C121.609 60.4893 121.625 60.6353 121.533 60.8104Z" fill="white"/>
</g>
<path d="M79.8753 51.7724C79.7919 51.2885 79.8128 50.909 79.8586 50.5044C80.7762 50.0164 81.6855 49.541 82.6573 49.028C82.774 49.5285 82.7365 49.9706 82.6865 50.4419C81.7647 50.8756 80.8555 51.3094 79.8753 51.7682V51.7724Z" fill="white"/>
<mask id="mask11_8_2038" style="mask-type:luminance" maskUnits="userSpaceOnUse" x="170" y="18" width="6" height="6">
<path d="M170.057 18.827H175.22V23.8278H170.057V18.827Z" fill="white"/>
</mask>
<g mask="url(#mask11_8_2038)">
<path d="M172.263 21.2252H172.538C172.86 21.2252 173.122 21.121 173.122 20.8624C173.122 20.633 172.951 20.4787 172.584 20.4787C172.43 20.4787 172.326 20.4954 172.263 20.5079V21.2252ZM172.246 22.6308H171.667V20.1283C171.896 20.095 172.217 20.0491 172.63 20.0491C173.106 20.0491 173.323 20.1283 173.489 20.2493C173.644 20.3577 173.752 20.5371 173.752 20.7831C173.752 21.0876 173.519 21.2878 173.231 21.3796V21.4088C173.473 21.488 173.598 21.684 173.673 22.0219C173.752 22.4014 173.81 22.5391 173.856 22.6308H173.243C173.168 22.5391 173.122 22.3263 173.043 22.0219C172.997 21.7591 172.847 21.6382 172.522 21.6382H172.246V22.6308ZM170.699 21.3337C170.699 22.4473 171.542 23.3357 172.659 23.3357C173.752 23.3482 174.578 22.4473 174.578 21.3504C174.578 20.2326 173.752 19.3317 172.63 19.3317C171.542 19.3317 170.699 20.2326 170.699 21.3337ZM175.22 21.3337C175.22 22.7393 174.086 23.8529 172.647 23.8529C171.204 23.8529 170.057 22.7393 170.057 21.3337C170.057 19.9281 171.204 18.827 172.659 18.827C174.086 18.827 175.22 19.9281 175.22 21.3337Z" fill="white"/>
</g>
<mask id="mask12_8_2038" style="mask-type:luminance" maskUnits="userSpaceOnUse" x="196" y="0" width="5" height="80">
<path d="M196.462 0.158447H200.203V79.9212H196.462V0.158447Z" fill="white"/>
</mask>
<g mask="url(#mask12_8_2038)">
<path d="M198.664 1.35547V78.7241" stroke="white" stroke-width="2.9881" stroke-linecap="round"/>
</g>
<path d="M248.423 30.4002C249.243 30.4079 249.692 30.1203 250.022 29.381C251.887 25.2079 255.04 22.2688 259.214 20.5788C263.567 18.8162 268.036 18.8238 272.393 20.7257C277.517 22.963 280.916 26.7842 282.234 32.2169C283.568 37.7128 282.528 42.7956 278.9 47.2487C278.839 47.3228 278.784 47.4011 278.713 47.4642C277.596 48.4612 277.174 49.6481 277.09 51.196C276.936 54.0353 275.125 55.9449 272.743 57.2842C268.409 59.7196 263.676 60.0037 258.858 59.6739C256.244 59.4944 253.691 58.9824 251.268 57.9549C248.661 56.8498 246.591 55.155 245.5 52.457C245.093 51.4544 245.196 51.3151 246.221 51.1495C248.166 50.835 250.112 50.5246 252.049 50.1664C252.739 50.0382 253.176 50.1054 253.432 50.8731C253.916 52.3309 255.101 53.0875 256.491 53.4956C259.442 54.3644 262.436 54.4504 265.438 53.7644C266.153 53.6002 266.823 53.2974 267.421 52.8595C268.759 51.8819 268.718 50.3403 267.324 49.4118C266.734 49.019 266.07 48.791 265.382 48.6518C262.641 48.1009 259.897 47.5598 257.154 47.0145C255.374 46.6598 253.612 46.2523 251.956 45.4826C248.65 43.9465 247.044 41.1321 247.382 37.4883C247.454 36.706 247.084 36.3118 246.271 36.3069C245.127 36.3014 243.98 36.3319 242.838 36.2882C242.099 36.2598 241.821 36.5287 241.834 37.2756C241.87 39.3071 241.849 41.3406 241.849 43.3735C241.849 48.4564 241.832 53.5365 241.869 58.6193C241.874 59.5325 241.592 59.8409 240.671 59.8138C238.511 59.7529 236.346 59.7432 234.187 59.7965C233.239 59.8194 233.004 59.4536 233.006 58.5708C233.035 51.5847 233.027 44.5964 233.029 37.6109C233.029 36.2085 233.023 36.2085 231.604 36.1988C229.124 36.1836 226.645 36.1434 224.165 36.1684C223.299 36.176 222.954 35.8767 223.005 35.0023C223.078 33.8001 223.119 32.5897 223.087 31.3869C223.067 30.6725 223.294 30.4453 224.006 30.4494C226.93 30.4647 235.133 30.4169 236.308 30.4169C236.308 30.4058 244.383 30.3594 248.421 30.3961L248.423 30.4002ZM261.505 29.5501C264.553 29.5674 267.529 29.9977 270.356 31.1797C272.645 32.1366 274.6 33.4856 275.592 35.8905C275.979 36.828 275.918 36.9707 274.94 37.1557C272.879 37.5444 270.812 37.9026 268.754 38.3066C268.227 38.4098 267.932 38.2816 267.691 37.798C267.236 36.8813 266.482 36.2751 265.542 35.8656C263.568 35.0064 261.513 35.0937 259.447 35.3092C258.428 35.4138 257.438 35.6522 256.615 36.3208C255.371 37.3331 255.497 38.6038 256.931 39.341C257.696 39.7339 258.496 40.0408 259.348 40.2008C262.44 40.7822 265.538 41.3344 268.617 41.9822C270.741 42.4277 272.817 43.097 274.499 44.5437C275.146 45.1001 275.444 44.8618 275.844 44.3414C279.835 39.1622 279.327 31.5636 274.558 27.0703C268.555 21.4158 259.153 22.6076 254.724 29.5175C254.575 29.7503 254.301 30.0205 254.48 30.2852C254.669 30.5672 255.013 30.3691 255.275 30.3046C257.322 29.7974 259.399 29.5577 261.503 29.5522L261.505 29.5501Z" fill="white"/>
<path d="M292.731 40.9007C293.399 40.9007 294.067 40.891 294.734 40.9027C295.516 40.9159 295.951 40.514 295.976 39.7671C296.026 38.3073 296.041 36.8453 296.018 35.3861C296.005 34.6011 295.45 34.2866 294.736 34.2637C293.594 34.2277 292.447 34.2429 291.305 34.2062C289.821 34.1605 289.279 33.6727 289.016 32.1941C288.545 29.5321 287.49 27.0946 286.103 24.7943C285.183 23.27 285.254 22.5515 286.552 21.305C287.262 20.6225 287.956 19.9255 288.644 19.2202C289.443 18.4047 289.466 17.93 288.69 17.1048C287.818 16.1805 286.892 15.3075 286.019 14.3853C285.374 13.7049 284.774 13.7507 284.133 14.3666C283.261 15.1994 282.389 16.0323 281.498 16.8457C280.632 17.6363 279.903 17.6896 278.916 17.0612C276.323 15.4108 273.571 14.1553 270.55 13.4978C269.653 13.3031 269.164 12.6324 269.163 11.6852C269.158 10.4464 269.178 9.20753 269.171 7.96938C269.165 6.88712 268.831 6.49426 267.79 6.45823C266.457 6.4125 265.119 6.4125 263.786 6.42359C262.952 6.42913 262.487 6.8698 262.475 7.72341C262.46 8.89921 262.473 10.0729 262.45 11.2487C262.423 12.6054 261.893 13.179 260.553 13.4423C257.716 13.9952 255.07 15.0415 252.63 16.5886C251.53 17.2878 250.88 17.2406 249.933 16.3011C249.122 15.4953 248.329 14.6701 247.535 13.8484C246.805 13.0897 246.236 13.0329 245.489 13.734C244.516 14.6452 243.575 15.5923 242.624 16.5277C242.004 17.1374 242.036 17.734 242.644 18.3437C243.406 19.1058 244.144 19.8929 244.899 20.6627C245.929 21.7089 245.983 22.557 245.176 23.7896C244.674 24.5573 244.23 25.3714 243.823 26.1946C243.57 26.7094 243.282 26.8542 242.776 26.5853C242.496 26.4364 242.204 26.3068 241.914 26.1772C240.187 25.4075 240.13 25.3673 241.16 23.7363C241.679 22.9131 241.635 22.3852 240.96 21.6916C240.218 20.9315 239.364 20.247 238.963 19.18C238.283 17.3674 238.513 15.7136 239.838 14.3202C241.063 13.0335 242.358 11.8065 243.703 10.6459C245.284 9.28167 247.848 9.44934 249.481 10.9376C249.997 11.4081 250.507 11.8945 250.952 12.4301C251.409 12.9809 251.819 13.0952 252.491 12.7294C254.338 11.7213 256.297 10.9688 258.332 10.4311C258.866 10.2898 259.063 10.0445 259.038 9.50893C259.009 8.87634 259.043 8.2396 259.055 7.60354C259.099 4.86533 260.949 3.02785 263.698 3.00914C265.064 2.99944 266.433 2.98836 267.799 3.02854C270.878 3.11792 272.572 4.90344 272.589 7.97561C272.606 10.9958 272.203 10.2551 274.897 11.2286C276.303 11.7358 277.689 12.3095 278.954 13.1111C279.662 13.5587 280.173 13.4749 280.7 12.886C281.038 12.5084 281.415 12.164 281.777 11.8072C283.64 9.98146 286.178 9.86506 288.111 11.6416C289.44 12.8631 290.69 14.1858 291.871 15.5542C293.177 17.0695 292.941 19.7654 291.468 21.3473C291.058 21.7872 290.641 22.2369 290.161 22.5972C289.454 23.1307 289.467 23.6815 289.848 24.4111C290.777 26.1856 291.538 28.0355 292.038 29.9811C292.175 30.5125 292.475 30.8007 293.043 30.8007C293.806 30.8007 294.569 30.8007 295.332 30.8368C297.484 30.9379 299.383 32.826 299.435 34.9815C299.477 36.7268 299.464 38.4763 299.399 40.2203C299.318 42.4381 297.412 44.2812 295.186 44.3608C294.488 44.3858 293.788 44.3837 293.088 44.3664C292.361 44.3491 291.94 44.6255 291.69 45.3613C290.956 47.5363 290.936 47.4995 288.812 46.4796C288.085 46.1311 287.915 45.7286 288.194 44.9803C288.514 44.1204 288.747 43.2232 288.967 42.3314C289.211 41.3427 289.833 40.9041 290.823 40.9104C291.458 40.9138 292.095 40.9104 292.73 40.9104C292.73 40.9062 292.73 40.9027 292.73 40.8986L292.731 40.9007Z" fill="white"/>
<path d="M283.406 52.1514H281.389V57.3327H280.045V52.1514H278.028V50.9701H283.406V52.1514Z" fill="white"/>
<path d="M283.588 51.0332C283.733 51.009 283.892 50.9861 284.065 50.9653C284.237 50.9438 284.412 50.9279 284.587 50.9154C284.763 50.9036 284.934 50.8939 285.1 50.8884C285.266 50.8822 285.419 50.8794 285.559 50.8794C285.879 50.8794 286.196 50.9064 286.508 50.9612C286.82 51.0159 287.099 51.1094 287.344 51.2431C287.589 51.3762 287.788 51.5598 287.939 51.7933C288.091 52.0268 288.166 52.3192 288.166 52.6705C288.166 53.1915 288.037 53.6204 287.78 53.9564C287.523 54.2925 287.167 54.5218 286.713 54.6424L287.194 54.9244L288.785 57.3328H287.222L285.641 54.8696L284.933 54.7608V57.3335H283.588V51.0332ZM285.65 52.0607C285.511 52.0607 285.376 52.0621 285.246 52.0656C285.115 52.0684 285.011 52.0794 284.932 52.0975V53.8518H285.504C285.886 53.8518 286.187 53.779 286.408 53.6335C286.629 53.488 286.739 53.2365 286.739 52.879C286.739 52.6123 286.645 52.4092 286.458 52.27C286.271 52.1307 286.001 52.0607 285.65 52.0607Z" fill="white"/>
<path d="M292.038 55.9781H289.893L289.375 57.3326H288.031L290.521 50.9243H291.511L294.01 57.3326H292.583L292.038 55.9781ZM290.266 54.9145H291.72L291.229 53.5877L291.011 52.5789H290.965L290.747 53.5967L290.266 54.9145Z" fill="white"/>
<path d="M295.799 54.0145L295.254 53.0604H295.208L295.354 54.0242V57.3326H294.081V50.9243H295.054L297.679 54.3145L298.197 55.2416H298.252L298.106 54.3055V50.9694H299.379V57.3777H298.406L295.799 54.0145Z" fill="white"/>
<path d="M303.021 55.5874C303.021 55.3996 302.943 55.2513 302.785 55.1419C302.627 55.0331 302.432 54.9326 302.199 54.8418C301.966 54.7511 301.713 54.6603 301.441 54.5689C301.168 54.4781 300.915 54.3568 300.683 54.2051C300.449 54.054 300.254 53.8628 300.097 53.6328C299.939 53.4028 299.861 53.1027 299.861 52.7328C299.861 52.4175 299.917 52.1404 300.029 51.9013C300.141 51.6623 300.298 51.4648 300.501 51.3103C300.704 51.1558 300.949 51.0394 301.237 50.9604C301.525 50.8814 301.841 50.8419 302.187 50.8419C302.587 50.8419 302.967 50.8766 303.327 50.9465C303.687 51.0165 303.983 51.1149 304.213 51.2417L303.785 52.369C303.713 52.3267 303.621 52.2824 303.508 52.2374C303.396 52.1916 303.267 52.1528 303.122 52.1189C302.976 52.0856 302.822 52.0586 302.659 52.0371C302.495 52.0163 302.328 52.0052 302.159 52.0052C301.856 52.0052 301.622 52.0586 301.455 52.1646C301.288 52.2706 301.205 52.4175 301.205 52.6053C301.205 52.793 301.283 52.9434 301.441 53.0549C301.598 53.1672 301.794 53.2704 302.027 53.364C302.26 53.4582 302.513 53.5517 302.785 53.646C303.058 53.7402 303.311 53.8614 303.544 54.0097C303.777 54.158 303.972 54.3444 304.13 54.5689C304.287 54.7933 304.366 55.0809 304.366 55.4322C304.366 55.7834 304.305 56.0869 304.184 56.3412C304.063 56.5955 303.892 56.8061 303.671 56.9731C303.45 57.1401 303.185 57.2627 302.876 57.341C302.567 57.42 302.228 57.4595 301.859 57.4595C301.61 57.4595 301.375 57.4456 301.154 57.4186C300.933 57.3916 300.728 57.3576 300.541 57.3188C300.353 57.2793 300.188 57.2371 300.046 57.1914C299.903 57.1456 299.789 57.102 299.705 57.0597L300.15 55.9234C300.217 55.9601 300.309 55.9989 300.427 56.0419C300.546 56.0842 300.677 56.125 300.823 56.1645C300.968 56.204 301.124 56.2359 301.291 56.2601C301.457 56.2844 301.625 56.2962 301.795 56.2962C302.195 56.2962 302.499 56.2387 302.708 56.1236C302.917 56.0086 303.021 55.8299 303.021 55.5874Z" fill="white"/>
<path d="M304.748 50.9701H308.845V52.1514H306.092V53.6328H308.627V54.8141H306.092V57.332H304.747V50.9701H304.748Z" fill="white"/>
<path d="M309.009 54.151C309.009 53.63 309.075 53.1637 309.209 52.7514C309.342 52.3392 309.534 51.9927 309.786 51.7107C310.037 51.4287 310.345 51.2139 310.708 51.0657C311.072 50.9174 311.483 50.8433 311.944 50.8433C312.434 50.8433 312.863 50.9236 313.229 51.0844C313.595 51.2451 313.902 51.471 314.147 51.7613C314.392 52.0516 314.577 52.4008 314.701 52.8068C314.825 53.2129 314.887 53.6611 314.887 54.1524C314.887 54.6734 314.819 55.1404 314.683 55.552C314.546 55.9642 314.351 56.3107 314.097 56.5927C313.843 56.8747 313.534 57.0895 313.17 57.2377C312.807 57.386 312.398 57.4601 311.944 57.4601C311.453 57.4601 311.025 57.3798 310.658 57.219C310.292 57.0583 309.986 56.8324 309.741 56.5421C309.496 56.2518 309.312 55.9026 309.191 55.4966C309.069 55.0905 309.009 54.6423 309.009 54.151ZM310.435 54.151C310.435 54.4663 310.466 54.7538 310.526 55.0143C310.586 55.2748 310.678 55.4993 310.799 55.6871C310.92 55.8749 311.076 56.0204 311.267 56.1236C311.458 56.2268 311.683 56.2781 311.944 56.2781C312.422 56.2781 312.795 56.1146 313.062 55.7876C313.328 55.4605 313.461 54.9152 313.461 54.1517C313.461 53.8489 313.434 53.5669 313.379 53.3064C313.325 53.0459 313.235 52.82 313.111 52.6295C312.987 52.4389 312.829 52.29 312.639 52.184C312.449 52.0779 312.217 52.0246 311.944 52.0246C311.471 52.0246 311.102 52.1944 310.836 52.5339C310.568 52.8727 310.435 53.4117 310.435 54.151Z" fill="white"/>
<path d="M315.323 51.0332C315.468 51.009 315.627 50.9861 315.8 50.9653C315.972 50.9438 316.147 50.9279 316.322 50.9154C316.498 50.9036 316.669 50.8939 316.835 50.8884C317.001 50.8822 317.154 50.8794 317.294 50.8794C317.614 50.8794 317.931 50.9064 318.243 50.9612C318.555 51.0159 318.834 51.1094 319.079 51.2431C319.324 51.3762 319.523 51.5598 319.674 51.7933C319.825 52.0268 319.901 52.3192 319.901 52.6705C319.901 53.1915 319.772 53.6204 319.515 53.9564C319.257 54.2925 318.901 54.5218 318.447 54.6424L318.929 54.9244L320.519 57.3328H318.956L317.375 54.8696L316.667 54.7608V57.3335H315.322V51.0332H315.323ZM317.385 52.0607C317.246 52.0607 317.111 52.0621 316.981 52.0656C316.85 52.0684 316.746 52.0794 316.667 52.0975V53.8518H317.239C317.62 53.8518 317.922 53.779 318.143 53.6335C318.364 53.488 318.474 53.2365 318.474 52.879C318.474 52.6123 318.38 52.4092 318.193 52.27C318.006 52.1307 317.736 52.0607 317.385 52.0607Z" fill="white"/>
<path d="M326.089 54.142L326.235 52.8242H326.18L325.744 53.824L324.272 56.1964H323.854L322.292 53.815L321.865 52.8332H321.81L322.001 54.133V57.3327H320.729V50.9701H321.946L323.782 53.9058L324.127 54.6056H324.173L324.473 53.8878L326.226 50.9701H327.435V57.3327H326.09V54.142H326.089Z" fill="white"/>
<path d="M331.512 55.9781H329.368L328.85 57.3326H327.505L329.995 50.9243H330.985L333.484 57.3326H332.058L331.512 55.9781ZM329.741 54.9145H331.195L330.704 53.5877L330.486 52.5789H330.44L330.222 53.5967L329.741 54.9145Z" fill="white"/>
<path d="M337.927 57.0597C337.727 57.199 337.464 57.3009 337.137 57.3639C336.81 57.4277 336.473 57.4595 336.128 57.4595C335.723 57.4595 335.333 57.3986 334.961 57.278C334.588 57.1568 334.258 56.9627 333.97 56.696C333.682 56.4292 333.454 56.087 333.285 55.6692C333.115 55.2507 333.031 54.7449 333.031 54.1511C333.031 53.5331 333.128 53.0134 333.322 52.5921C333.515 52.1709 333.763 51.8321 334.067 51.5743C334.369 51.3166 334.706 51.1302 335.075 51.0152C335.444 50.9002 335.808 50.8427 336.165 50.8427C336.559 50.8427 336.89 50.8669 337.16 50.9154C337.429 50.9639 337.651 51.0214 337.827 51.0879L337.564 52.2152C337.412 52.1487 337.235 52.1002 337.033 52.0697C336.83 52.0392 336.574 52.024 336.265 52.024C335.992 52.024 335.745 52.0676 335.525 52.1556C335.304 52.2436 335.114 52.3753 334.957 52.5513C334.799 52.7272 334.676 52.9483 334.589 53.215C334.501 53.4818 334.457 53.7936 334.457 54.1511C334.457 54.4663 334.497 54.7539 334.576 55.0144C334.655 55.2749 334.772 55.4994 334.93 55.6872C335.088 55.8749 335.288 56.0204 335.53 56.1237C335.772 56.2269 336.054 56.2782 336.375 56.2782C336.671 56.2782 336.921 56.2512 337.124 56.1964C337.327 56.1417 337.507 56.0724 337.665 55.9872L337.927 57.0597Z" fill="white"/>
<path d="M338.754 51.6969H338.027V50.9694H340.825V51.6969H340.099V56.6051H340.825V57.3327H338.027V56.6051H338.754V51.6969Z" fill="white"/>
<path d="M341.034 54.1511C341.034 53.63 341.1 53.1637 341.234 52.7515C341.367 52.3392 341.559 51.9928 341.811 51.7108C342.062 51.4288 342.37 51.214 342.733 51.0657C343.097 50.9174 343.508 50.8433 343.969 50.8433C344.459 50.8433 344.888 50.9237 345.254 51.0844C345.621 51.2452 345.927 51.471 346.172 51.7614C346.417 52.0517 346.602 52.4009 346.726 52.8069C346.85 53.2129 346.912 53.6612 346.912 54.1524C346.912 54.6735 346.844 55.1405 346.708 55.552C346.571 55.9643 346.376 56.3107 346.122 56.5927C345.868 56.8747 345.559 57.0895 345.195 57.2378C344.832 57.3861 344.423 57.4602 343.969 57.4602C343.479 57.4602 343.05 57.3798 342.683 57.2191C342.317 57.0583 342.011 56.8325 341.766 56.5421C341.521 56.2518 341.337 55.9026 341.216 55.4966C341.095 55.0906 341.034 54.6423 341.034 54.1511ZM342.46 54.1511C342.46 54.4663 342.491 54.7539 342.551 55.0144C342.611 55.2749 342.703 55.4994 342.824 55.6871C342.945 55.8749 343.101 56.0204 343.292 56.1237C343.483 56.2269 343.708 56.2782 343.969 56.2782C344.447 56.2782 344.82 56.1146 345.087 55.7876C345.353 55.4606 345.486 54.9153 345.486 54.1518C345.486 53.849 345.459 53.567 345.405 53.3065C345.35 53.0459 345.26 52.8201 345.137 52.6295C345.013 52.439 344.855 52.29 344.664 52.184C344.474 52.078 344.242 52.0246 343.969 52.0246C343.497 52.0246 343.127 52.1944 342.861 52.5339C342.593 52.8727 342.46 53.4118 342.46 54.1511ZM344.269 49.4243H345.831V49.7063L344.25 50.4969H343.233L344.269 49.4243Z" fill="white"/>
<path d="M349.065 54.0145L348.52 53.0604H348.475L348.62 54.0242V57.3326H347.348V50.9243H348.32L350.946 54.3145L351.464 55.2416H351.518L351.373 54.3055V50.9694H352.645V57.3777H351.673L349.065 54.0145Z" fill="white"/>
<path d="M283.272 65.2876C283.272 65.0998 283.193 64.9515 283.036 64.842C282.878 64.7333 282.682 64.6328 282.45 64.542C282.216 64.4513 281.964 64.3605 281.691 64.269C281.419 64.1783 281.166 64.057 280.933 63.9053C280.7 63.7542 280.504 63.563 280.347 63.333C280.19 63.1029 280.111 62.8029 280.111 62.4329C280.111 62.1177 280.167 61.8405 280.279 61.6015C280.392 61.3625 280.549 61.165 280.752 61.0105C280.955 60.856 281.2 60.7396 281.488 60.6606C281.775 60.5816 282.092 60.5421 282.437 60.5421C282.837 60.5421 283.217 60.5768 283.577 60.6467C283.937 60.7167 284.233 60.8151 284.463 60.9419L284.036 62.0692C283.963 62.0269 283.871 61.9826 283.759 61.9375C283.647 61.8918 283.518 61.853 283.372 61.8191C283.227 61.7858 283.072 61.7588 282.909 61.7373C282.746 61.7165 282.579 61.7054 282.409 61.7054C282.106 61.7054 281.872 61.7588 281.705 61.8648C281.538 61.9708 281.455 62.1177 281.455 62.3055C281.455 62.4932 281.534 62.6436 281.691 62.7551C281.848 62.8674 282.043 62.9706 282.277 63.0641C282.51 63.1584 282.763 63.2519 283.035 63.3461C283.308 63.4404 283.561 63.5616 283.793 63.7099C284.027 63.8582 284.222 64.0446 284.379 64.269C284.536 64.4935 284.615 64.7811 284.615 65.1324C284.615 65.4836 284.554 65.7871 284.434 66.0414C284.313 66.2957 284.142 66.5063 283.921 66.6733C283.7 66.8403 283.435 66.9629 283.126 67.0412C282.817 67.1202 282.477 67.1597 282.108 67.1597C281.86 67.1597 281.625 67.1458 281.404 67.1188C281.183 67.0918 280.978 67.0578 280.791 67.019C280.603 66.9795 280.438 66.9373 280.296 66.8916C280.153 66.8458 280.04 66.8022 279.955 66.7599L280.401 65.6236C280.467 65.6603 280.56 65.6991 280.678 65.7421C280.796 65.7843 280.928 65.8252 281.073 65.8647C281.218 65.9042 281.374 65.9361 281.541 65.9603C281.707 65.9846 281.876 65.9964 282.045 65.9964C282.445 65.9964 282.75 65.9389 282.958 65.8238C283.167 65.7088 283.272 65.5301 283.272 65.2876Z" fill="white"/>
<path d="M285.643 61.3972H284.917V60.6697H287.715V61.3972H286.988V66.3055H287.715V67.033H284.917V66.3055H285.643V61.3972Z" fill="white"/>
<path d="M290.013 63.7148L289.468 62.7607H289.422L289.568 63.7245V67.033H288.296V60.6246H289.268L291.893 64.0148L292.412 64.9419H292.466L292.321 64.0058V60.6697H293.593V67.078H292.621L290.013 63.7148Z" fill="white"/>
<path d="M294.401 60.6703C294.534 60.6523 294.687 60.6371 294.86 60.6246C295.032 60.6128 295.211 60.6038 295.396 60.5976C295.581 60.5913 295.761 60.5872 295.937 60.5837C296.113 60.5809 296.27 60.5789 296.409 60.5789C297.014 60.5789 297.534 60.6592 297.967 60.82C298.4 60.9807 298.755 61.2031 299.03 61.4879C299.306 61.7727 299.507 62.1122 299.634 62.5057C299.762 62.9 299.825 63.3295 299.825 63.7965C299.825 64.2206 299.762 64.6328 299.638 65.0326C299.514 65.4324 299.313 65.7885 299.034 66.101C298.756 66.4128 298.392 66.6629 297.944 66.8507C297.496 67.0385 296.945 67.1327 296.291 67.1327C296.187 67.1327 296.047 67.1292 295.868 67.1237C295.689 67.1174 295.504 67.1098 295.314 67.1008C295.124 67.0918 294.945 67.0828 294.778 67.0738C294.611 67.0648 294.486 67.0537 294.401 67.0419V60.6703ZM296.509 61.7609C296.37 61.7609 296.228 61.7623 296.082 61.7657C295.937 61.7685 295.824 61.7761 295.746 61.7886V65.9153C295.777 65.9216 295.824 65.9257 295.887 65.9292C295.95 65.9326 296.017 65.9354 296.087 65.9382C296.156 65.941 296.223 65.9444 296.287 65.9472C296.351 65.95 296.397 65.952 296.428 65.952C296.815 65.952 297.136 65.8918 297.391 65.7705C297.645 65.6493 297.847 65.4885 297.995 65.289C298.143 65.0887 298.248 64.8615 298.309 64.6072C298.369 64.3529 298.399 64.0889 298.399 63.8166C298.399 63.5928 298.372 63.3593 298.318 63.1168C298.263 62.8743 298.165 62.6533 298.023 62.4531C297.88 62.2528 297.688 62.0879 297.446 61.9577C297.203 61.826 296.891 61.7609 296.509 61.7609Z" fill="white"/>
<path d="M300.906 61.3972H300.179V60.6697H302.978V61.3972H302.251V66.3055H302.978V67.033H300.179V66.3055H300.906V61.3972Z" fill="white"/>
<path d="M308.229 66.7599C308.029 66.8992 307.765 67.0011 307.439 67.0641C307.112 67.1279 306.775 67.1597 306.43 67.1597C306.024 67.1597 305.635 67.0988 305.263 66.9782C304.89 66.8569 304.56 66.6629 304.272 66.3962C303.984 66.1294 303.756 65.7872 303.587 65.3694C303.417 64.9509 303.332 64.4451 303.332 63.8513C303.332 63.2332 303.429 62.7136 303.623 62.2923C303.817 61.8711 304.065 61.5323 304.368 61.2745C304.671 61.0168 305.008 60.8304 305.377 60.7154C305.746 60.6004 306.11 60.5428 306.467 60.5428C306.86 60.5428 307.192 60.5671 307.461 60.6156C307.731 60.6641 307.953 60.7216 308.129 60.7881L307.866 61.9154C307.714 61.8489 307.537 61.8004 307.335 61.7699C307.132 61.7394 306.876 61.7242 306.567 61.7242C306.294 61.7242 306.047 61.7678 305.826 61.8558C305.605 61.9438 305.416 62.0755 305.258 62.2515C305.1 62.4274 304.978 62.6485 304.891 62.9152C304.803 63.182 304.759 63.4938 304.759 63.8513C304.759 64.1665 304.799 64.4541 304.877 64.7146C304.956 64.9751 305.074 65.1996 305.232 65.3874C305.389 65.5751 305.589 65.7206 305.832 65.8239C306.074 65.9271 306.355 65.9784 306.677 65.9784C306.973 65.9784 307.223 65.9514 307.426 65.8966C307.629 65.8419 307.809 65.7726 307.967 65.6874L308.229 66.7599Z" fill="white"/>
<path d="M311.682 65.6784H309.538L309.02 67.033H307.675L310.165 60.6246H311.155L313.654 67.033H312.227L311.682 65.6784ZM309.91 64.6149H311.363L310.873 63.288L310.655 62.2792H310.609L310.391 63.297L309.91 64.6149Z" fill="white"/>
<path d="M318.25 67.0329H313.871V60.6703H315.216V65.8516H318.251V67.0329H318.25Z" fill="white"/>
</svg>
