<svg width="85" height="55" viewBox="0 0 85 55" fill="none" xmlns="http://www.w3.org/2000/svg">
<path d="M45 53C45 50.0193 43.0767 47.0246 39.3447 44.6748C35.639 42.3416 30.3956 40.833 24.5 40.833C18.6044 40.833 13.361 42.3416 9.65527 44.6748C5.92334 47.0246 4 50.0193 4 53C4 54.1046 3.10457 55 2 55C0.89543 55 0 54.1046 0 53C0 48.1567 3.11306 44.0676 7.52441 41.29C11.9621 38.496 17.9692 36.833 24.5 36.833C31.0308 36.833 37.0379 38.496 41.4756 41.29C45.8869 44.0676 49 48.1567 49 53C49 54.1046 48.1046 55 47 55C45.8954 55 45 54.1046 45 53ZM36.5625 16.167C36.5625 9.43359 31.148 4 24.5 4C17.852 4 12.4375 9.43359 12.4375 16.167C12.4377 22.9002 17.8521 28.333 24.5 28.333C31.1479 28.333 36.5623 22.9002 36.5625 16.167ZM40.5625 16.167C40.5623 25.0815 33.3849 32.333 24.5 32.333C15.6151 32.333 8.43768 25.0815 8.4375 16.167C8.4375 7.25233 15.615 0 24.5 0C33.385 0 40.5625 7.25233 40.5625 16.167Z" fill="white"/>
<path d="M62.8113 5.11966C63.3154 4.7643 63.8966 4.53289 64.507 4.44463L64.8139 4.41286L65.035 4.40579C65.5399 4.40678 65.9832 4.52222 66.351 4.64609C66.7492 4.78027 67.2052 4.9778 67.6655 5.17599L71.9949 7.03998L72.6744 7.33707C72.8933 7.43554 73.101 7.53362 73.2871 7.63241C73.6305 7.81476 74.0194 8.05806 74.3677 8.42469L74.5144 8.59014L74.7023 8.8349C75.0578 9.3391 75.289 9.92024 75.3773 10.5307L75.4094 10.8385C75.4481 11.4359 75.3184 11.9554 75.1766 12.3764C75.1093 12.576 75.0258 12.7902 74.9345 13.012L74.6447 13.6939L62.9998 40.7407C62.79 41.2278 62.3954 41.6119 61.9027 41.8081L54.7829 44.6422C54.2901 44.8384 53.7396 44.8306 53.2524 44.6208C52.7652 44.411 52.3812 44.0165 52.1851 43.5237L49.3509 36.404C49.1548 35.9112 49.1626 35.3606 49.3723 34.8735L61.0222 7.81525C61.2194 7.35719 61.4137 6.90365 61.6097 6.53449C61.8178 6.14245 62.105 5.69033 62.5656 5.30785L62.8113 5.11966ZM53.3736 35.694L55.1618 40.1861L59.6539 38.398L67.1048 21.0888L60.8257 18.3854L53.3736 35.694ZM64.9629 8.78493L64.6919 9.40576L64.6864 9.41845L64.6852 9.42316L64.6839 9.42262L62.407 14.711L68.6873 17.4149L70.9707 12.1114C71.1797 11.6261 71.2958 11.3477 71.3677 11.144C71.2788 11.0984 71.1725 11.0466 71.0354 10.9851L70.4124 10.7139L66.083 8.84991C65.6004 8.64213 65.3233 8.52593 65.1204 8.45424C65.075 8.54272 65.0241 8.64861 64.9629 8.78493Z" fill="white"/>
</svg>
