<svg width="113" height="95" viewBox="0 0 113 95" fill="none" xmlns="http://www.w3.org/2000/svg">
<path d="M84.7773 93C84.7773 88.9509 82.0369 84.9452 76.8789 81.8447C71.7602 78.768 64.56 76.7998 56.5 76.7998C48.44 76.7998 41.2398 78.768 36.1211 81.8447C30.9631 84.9452 28.2227 88.9509 28.2227 93C28.2227 94.1044 27.327 94.9998 26.2227 95C25.1181 95 24.2227 94.1046 24.2227 93C24.2227 86.9977 28.2594 81.9036 34.0596 78.417C39.8993 74.9068 47.8382 72.7998 56.5 72.7998C65.1618 72.7998 73.1007 74.9068 78.9404 78.417C84.7406 81.9036 88.7773 86.9977 88.7773 93C88.7773 94.1046 87.8819 95 86.7773 95C85.673 94.9998 84.7773 94.1044 84.7773 93ZM0 74.8027C0 70.3555 2.23391 66.3823 5.73438 63.2285C9.22939 60.0798 14.0802 57.6476 19.6582 56.1826L19.8594 56.1406C20.8606 55.9837 21.8374 56.6071 22.1006 57.6084C22.3812 58.6767 21.743 59.7701 20.6748 60.0508L19.7256 60.3125C15.0351 61.6685 11.1447 63.7383 8.41211 66.2002C5.50287 68.8212 4 71.787 4 74.8027C3.99975 75.9071 3.10441 76.8027 2 76.8027C0.895586 76.8027 0.000251475 75.9071 0 74.8027ZM109 74.8027C109 71.787 107.497 68.8212 104.588 66.2002C101.855 63.7383 97.9649 61.6685 93.2744 60.3125L92.3252 60.0508L92.1299 59.9893C91.1806 59.634 90.6364 58.6099 90.8994 57.6084C91.1626 56.6071 92.1394 55.9837 93.1406 56.1406L93.3418 56.1826L94.3789 56.4678C99.5208 57.9536 103.989 60.2765 107.266 63.2285C110.766 66.3823 113 70.3555 113 74.8027C113 75.9071 112.104 76.8027 111 76.8027C109.896 76.8027 109 75.9071 109 74.8027ZM72.667 38.4004C72.667 29.4499 65.4251 22.2002 56.5 22.2002C47.5749 22.2002 40.333 29.4499 40.333 38.4004C40.3332 47.3507 47.575 54.5996 56.5 54.5996C65.425 54.5996 72.6668 47.3507 72.667 38.4004ZM12.1113 20.2002C12.1113 9.04765 21.1363 0.000234394 32.2773 0C37.2808 0 41.8629 1.82713 45.3867 4.84863L45.7236 5.14551L45.8691 5.28906C46.5519 6.03858 46.5694 7.19863 45.8779 7.96973C45.1866 8.7406 44.0321 8.84899 43.2129 8.25195L43.0537 8.12305L42.7832 7.88574C39.9562 5.4614 36.2888 4 32.2773 4C23.3524 4.00023 16.1113 11.2499 16.1113 20.2002C16.1114 24.8492 18.0633 29.0379 21.1953 31.9941L21.502 32.2764L21.6475 32.4209C22.3298 33.1704 22.3465 34.3297 21.6553 35.1006C20.9639 35.8716 19.8095 35.9809 18.9902 35.3838L18.8311 35.2549L18.4492 34.9033C14.5492 31.2218 12.1114 25.9946 12.1113 20.2002ZM96.8887 20.2002C96.8887 11.2499 89.6476 4.00024 80.7227 4C76.582 4 72.808 5.55714 69.9463 8.12305L69.7871 8.25195C68.9679 8.849 67.8134 8.7406 67.1221 7.96973C66.3847 7.14735 66.454 5.88291 67.2764 5.14551L67.6133 4.84863C71.1371 1.82713 75.7192 0 80.7227 0C91.8637 0.000235441 100.889 9.04765 100.889 20.2002C100.889 26.1815 98.2911 31.5586 94.1689 35.2549L94.0098 35.3838C93.1905 35.9809 92.0361 35.8716 91.3447 35.1006C90.6073 34.2782 90.6757 33.0138 91.498 32.2764L91.8047 31.9941C94.9367 29.0379 96.8886 24.8492 96.8887 20.2002ZM76.667 38.4004C76.6668 49.5529 67.6411 58.5996 56.5 58.5996C45.3589 58.5996 36.3332 49.5529 36.333 38.4004C36.333 27.2477 45.3588 18.2002 56.5 18.2002C67.6412 18.2002 76.667 27.2477 76.667 38.4004Z" fill="white"/>
</svg>
