<svg width="74" height="74" viewBox="0 0 74 74" fill="none" xmlns="http://www.w3.org/2000/svg">
<path d="M32.94 16.8134C24.1334 18.4565 17.3025 26.3015 16.8704 35.2294C16.6598 39.575 17.7003 43.5761 20.046 47.2343C20.2792 47.5984 20.3334 47.9128 20.2069 48.3296C19.8829 49.3928 19.6095 50.4713 19.3177 51.544C19.0055 52.6912 18.6947 53.8392 18.3884 54.9682C18.5551 55.075 18.6531 55.0106 18.7554 54.9843C20.9483 54.4081 23.1426 53.8407 25.3318 53.2506C25.7179 53.1468 26.0236 53.1848 26.3723 53.3939C30.7639 56.0284 35.4831 56.8854 40.5269 55.9794C51.1256 54.0754 58.4574 43.3853 56.4122 32.8092C54.2749 21.7593 43.9921 14.7515 32.9414 16.8134H32.94ZM49.0856 43.6412C48.8194 46.2062 47.6919 47.5728 44.5361 48.5095C44.074 48.6462 43.5914 48.6711 43.1731 48.6587C42.0683 48.6609 41.0855 48.3815 40.1065 48.0664C34.2664 46.1857 29.9772 42.4076 26.7657 37.268C25.6112 35.421 24.5224 33.5623 24.3023 31.3482C24.0559 28.8746 24.8953 26.7987 26.7686 25.1623C27.5796 24.4538 29.0939 24.3243 30.0481 24.8237C30.4539 25.0358 30.7361 25.3568 30.8955 25.7816C31.4922 27.3742 32.0779 28.9704 32.6782 30.5615C32.8712 31.0733 32.7221 31.5164 32.4135 31.9061C31.9938 32.4355 31.5251 32.9254 31.0966 33.4475C30.4905 34.186 30.4788 34.499 30.9489 35.3311C32.7075 38.4453 35.2052 40.7763 38.3918 42.382C39.4893 42.9348 39.8198 42.8858 40.6563 41.966C41.1989 41.3686 41.7385 40.7654 42.2335 40.1292C42.6035 39.6532 43.0261 39.5348 43.549 39.776C45.3133 40.5891 47.0039 41.5434 48.701 42.4859C49.1763 42.7498 49.1339 43.2017 49.0878 43.6419L49.0856 43.6412Z" fill="white"/>
<path d="M65.1617 0H8.19829C3.73651 0 0.119995 3.61652 0.119995 8.0783V65.0417C0.119995 69.5035 3.73651 73.12 8.19829 73.12H65.1617C69.6235 73.12 73.24 69.5035 73.24 65.0417V8.0783C73.24 3.61652 69.6235 0 65.1617 0ZM40.2731 60.1449C35.2249 60.8739 30.4063 60.0695 25.8524 57.7626C25.4539 57.5608 25.1102 57.5184 24.6752 57.6346C20.8627 58.6517 17.0444 59.644 13.2275 60.6421C13.044 60.6896 12.8553 60.7167 12.5862 60.77C13.0483 59.0663 13.4871 57.4336 13.9338 55.8023C14.5612 53.5099 15.1856 51.2169 15.8342 48.9304C15.9439 48.5429 15.9 48.2387 15.7106 47.8885C8.65164 34.7825 14.8244 18.7319 28.8401 13.7276C42.6934 8.78171 57.9279 17.6958 60.4184 32.2042C62.7166 45.5903 53.6256 58.2174 40.2731 60.1463V60.1449Z" fill="white"/>
</svg>
