<svg id="svgQrWrapper" viewBox="0 0 300 300" xmlns="http://www.w3.org/2000/svg" xmlns:xlink="http://www.w3.org/1999/xlink" width="300" height="300" style="width: 100%; height: 100%; background-color: transparent;"><svg><g transform="translate(9, 9)scale(0.95)" fill="none"><svg width="300" height="300"><style>.background-color{ fill: #fff; }.dot-color{ fill: #ffffff; }.corners-square-color-0-0{ fill: #ffffff; }.corners-dot-color-0-0{ fill: #ffffff; }.corners-square-color-1-0{ fill: #ffffff; }.corners-dot-color-1-0{ fill: #ffffff; }.corners-square-color-0-1{ fill: #ffffff; }.corners-dot-color-0-1{ fill: #ffffff; }</style><defs/><g class="dot-color"><path d="M 5 85v 10h 10v -5a 5 5, 0, 0, 0, -5 -5" transform="rotate(-90,10,90)"/><path d="M 5 135v 10h 10v -5a 5 5, 0, 0, 0, -5 -5" transform="rotate(-90,10,140)"/><rect x="5" y="145" width="10" height="10" transform="rotate(0,10,150)"/><rect x="5" y="155" width="10" height="10" transform="rotate(0,10,160)"/><rect x="5" y="165" width="10" height="10" transform="rotate(0,10,170)"/><rect x="15" y="85" width="10" height="10" transform="rotate(0,20,90)"/><rect x="15" y="95" width="10" height="10" transform="rotate(0,20,100)"/><path d="M 15 115v 10h 10v -5a 5 5, 0, 0, 0, -5 -5" transform="rotate(-90,20,120)"/><path d="M 15 125v 10h 10v -5a 5 5, 0, 0, 0, -5 -5" transform="rotate(90,20,130)"/><rect x="15" y="145" width="10" height="10" transform="rotate(0,20,150)"/><rect x="15" y="155" width="10" height="10" transform="rotate(0,20,160)"/><rect x="15" y="165" width="10" height="10" transform="rotate(0,20,170)"/><path d="M 15 175v 10h 10v -5a 5 5, 0, 0, 0, -5 -5" transform="rotate(90,20,180)"/><path d="M 15 205v 10h 10v -5a 5 5, 0, 0, 0, -5 -5" transform="rotate(-90,20,210)"/><rect x="25" y="95" width="10" height="10" transform="rotate(0,30,100)"/><path d="M 25 135v 5a 5 5, 0, 0, 0, 5 5h 5v -5a 5 5, 0, 0, 0, -5 -5" transform="rotate(90,30,140)"/><path d="M 25 185v 5a 5 5, 0, 0, 0, 5 5h 5v -5a 5 5, 0, 0, 0, -5 -5" transform="rotate(90,30,190)"/><rect x="25" y="205" width="10" height="10" transform="rotate(0,30,210)"/><path d="M 35 95v 10h 10v -5a 5 5, 0, 0, 0, -5 -5" transform="rotate(90,40,100)"/><path d="M 35 125v 10h 10v -5a 5 5, 0, 0, 0, -5 -5" transform="rotate(-90,40,130)"/><path d="M 35 155v 10h 10v -5a 5 5, 0, 0, 0, -5 -5" transform="rotate(-90,40,160)"/><rect x="35" y="165" width="10" height="10" transform="rotate(0,40,170)"/><path d="M 35 175v 10h 10v -5a 5 5, 0, 0, 0, -5 -5" transform="rotate(90,40,180)"/><path d="M 35 205v 10h 10v -5a 5 5, 0, 0, 0, -5 -5" transform="rotate(90,40,210)"/><path d="M 45 105v 10h 10v -5a 5 5, 0, 0, 0, -5 -5" transform="rotate(-90,50,110)"/><rect x="45" y="115" width="10" height="10" transform="rotate(0,50,120)"/><path d="M 45 125v 10h 10v -5a 5 5, 0, 0, 0, -5 -5" transform="rotate(90,50,130)"/><path d="M 45 165v 10h 10v -5a 5 5, 0, 0, 0, -5 -5" transform="rotate(90,50,170)"/><path d="M 45 185v 10h 10v -5a 5 5, 0, 0, 0, -5 -5" transform="rotate(-90,50,190)"/><path d="M 45 195v 10h 10v -5a 5 5, 0, 0, 0, -5 -5" transform="rotate(90,50,200)"/><rect x="55" y="105" width="10" height="10" transform="rotate(0,60,110)"/><path d="M 55 135v 5a 5 5, 0, 0, 0, 5 5h 5v -5a 5 5, 0, 0, 0, -5 -5" transform="rotate(90,60,140)"/><path d="M 55 175v 5a 5 5, 0, 0, 0, 5 5h 5v -5a 5 5, 0, 0, 0, -5 -5" transform="rotate(90,60,180)"/><path d="M 65 85v 5a 5 5, 0, 0, 0, 5 5h 5v -5a 5 5, 0, 0, 0, -5 -5" transform="rotate(90,70,90)"/><path d="M 65 105v 10h 10v -5a 5 5, 0, 0, 0, -5 -5" transform="rotate(90,70,110)"/><path d="M 65 125v 10h 10v -5a 5 5, 0, 0, 0, -5 -5" transform="rotate(-90,70,130)"/><path d="M 65 145v 10h 10v -5a 5 5, 0, 0, 0, -5 -5" transform="rotate(-90,70,150)"/><path d="M 65 165v 10h 10v -5a 5 5, 0, 0, 0, -5 -5" transform="rotate(-90,70,170)"/><path d="M 65 185v 10h 10v -5a 5 5, 0, 0, 0, -5 -5" transform="rotate(-90,70,190)"/><path d="M 65 205v 5a 5 5, 0, 0, 0, 5 5h 5v -5a 5 5, 0, 0, 0, -5 -5" transform="rotate(90,70,210)"/><path d="M 75 95v 10h 10v -5a 5 5, 0, 0, 0, -5 -5" transform="rotate(-90,80,100)"/><path d="M 75 115v 10h 10v -5a 5 5, 0, 0, 0, -5 -5" transform="rotate(-90,80,120)"/><path d="M 75 125v 10h 10v -5a 5 5, 0, 0, 0, -5 -5" transform="rotate(90,80,130)"/><rect x="75" y="145" width="10" height="10" transform="rotate(0,80,150)"/><path d="M 75 165v 10h 10v -5a 5 5, 0, 0, 0, -5 -5" transform="rotate(90,80,170)"/><rect x="75" y="185" width="10" height="10" transform="rotate(0,80,190)"/><path d="M 75 195v 10h 10v -5a 5 5, 0, 0, 0, -5 -5" transform="rotate(90,80,200)"/><path d="M 85 15v 5a 5 5, 0, 0, 0, 5 5h 5v -5a 5 5, 0, 0, 0, -5 -5" transform="rotate(90,90,20)"/><path d="M 85 65v 10h 10v -5a 5 5, 0, 0, 0, -5 -5" transform="rotate(-90,90,70)"/><rect x="85" y="75" width="10" height="10" transform="rotate(0,90,80)"/><rect x="85" y="85" width="10" height="10" transform="rotate(0,90,90)"/><rect x="85" y="95" width="10" height="10" transform="rotate(0,90,100)"/><rect x="85" y="105" width="10" height="10" transform="rotate(0,90,110)"/><rect x="85" y="115" width="10" height="10" transform="rotate(0,90,120)"/><rect x="85" y="145" width="10" height="10" transform="rotate(0,90,150)"/><path d="M 85 175v 10h 10v -5a 5 5, 0, 0, 0, -5 -5" transform="rotate(-90,90,180)"/><path d="M 85 205v 10h 10v -5a 5 5, 0, 0, 0, -5 -5" transform="rotate(-90,90,210)"/><path d="M 85 215v 10h 10v -5a 5 5, 0, 0, 0, -5 -5" transform="rotate(90,90,220)"/><path d="M 85 275v 10h 10v -5a 5 5, 0, 0, 0, -5 -5" transform="rotate(-90,90,280)"/><path d="M 85 285v 10h 10v -5a 5 5, 0, 0, 0, -5 -5" transform="rotate(90,90,290)"/><path d="M 95 55v 10h 10v -5a 5 5, 0, 0, 0, -5 -5" transform="rotate(-90,100,60)"/><rect x="95" y="75" width="10" height="10" transform="rotate(0,100,80)"/><rect x="95" y="85" width="10" height="10" transform="rotate(0,100,90)"/><rect x="95" y="115" width="10" height="10" transform="rotate(0,100,120)"/><path d="M 95 125v 10h 10v -5a 5 5, 0, 0, 0, -5 -5" transform="rotate(90,100,130)"/><rect x="95" y="145" width="10" height="10" transform="rotate(0,100,150)"/><path d="M 95 155v 10h 10v -5a 5 5, 0, 0, 0, -5 -5" transform="rotate(90,100,160)"/><path d="M 95 175v 10h 10v -5a 5 5, 0, 0, 0, -5 -5" transform="rotate(90,100,180)"/><path d="M 95 195v 5a 5 5, 0, 0, 0, 5 5h 5v -5a 5 5, 0, 0, 0, -5 -5" transform="rotate(90,100,200)"/><path d="M 95 235v 10h 10v -5a 5 5, 0, 0, 0, -5 -5" transform="rotate(-90,100,240)"/><path d="M 95 245v 10h 10v -5a 5 5, 0, 0, 0, -5 -5" transform="rotate(90,100,250)"/><path d="M 95 265v 10h 10v -5a 5 5, 0, 0, 0, -5 -5" transform="rotate(-90,100,270)"/><path d="M 95 275v 10h 10v -5a 5 5, 0, 0, 0, -5 -5" transform="rotate(90,100,280)"/><path d="M 105 25v 5a 5 5, 0, 0, 0, 5 5h 5v -5a 5 5, 0, 0, 0, -5 -5" transform="rotate(90,110,30)"/><path d="M 105 45v 10h 10v -5a 5 5, 0, 0, 0, -5 -5" transform="rotate(-90,110,50)"/><rect x="105" y="55" width="10" height="10" transform="rotate(0,110,60)"/><rect x="105" y="65" width="10" height="10" transform="rotate(0,110,70)"/><rect x="105" y="75" width="10" height="10" transform="rotate(0,110,80)"/><path d="M 105 85v 10h 10v -5a 5 5, 0, 0, 0, -5 -5" transform="rotate(90,110,90)"/><rect x="105" y="115" width="10" height="10" transform="rotate(0,110,120)"/><path d="M 105 135v 5a 5 5, 0, 0, 0, 5 5h 5v -5a 5 5, 0, 0, 0, -5 -5" transform="rotate(90,110,140)"/><path d="M 105 165v 5a 5 5, 0, 0, 0, 5 5h 5v -5a 5 5, 0, 0, 0, -5 -5" transform="rotate(90,110,170)"/><path d="M 105 215v 10h 10v -5a 5 5, 0, 0, 0, -5 -5" transform="rotate(-90,110,220)"/><rect x="105" y="225" width="10" height="10" transform="rotate(0,110,230)"/><path d="M 105 255v 10h 10v -5a 5 5, 0, 0, 0, -5 -5" transform="rotate(-90,110,260)"/><path d="M 105 265v 10h 10v -5a 5 5, 0, 0, 0, -5 -5" transform="rotate(90,110,270)"/><path d="M 115 55v 10h 10v -5a 5 5, 0, 0, 0, -5 -5" transform="rotate(90,120,60)"/><path d="M 115 105v 10h 10v -5a 5 5, 0, 0, 0, -5 -5" transform="rotate(-90,120,110)"/><rect x="115" y="115" width="10" height="10" transform="rotate(0,120,120)"/><path d="M 115 125v 10h 10v -5a 5 5, 0, 0, 0, -5 -5" transform="rotate(90,120,130)"/><path d="M 115 145v 10h 10v -5a 5 5, 0, 0, 0, -5 -5" transform="rotate(-90,120,150)"/><rect x="115" y="155" width="10" height="10" transform="rotate(0,120,160)"/><path d="M 115 195v 10h 10v -5a 5 5, 0, 0, 0, -5 -5" transform="rotate(-90,120,200)"/><rect x="115" y="225" width="10" height="10" transform="rotate(0,120,230)"/><rect x="115" y="235" width="10" height="10" transform="rotate(0,120,240)"/><rect x="115" y="245" width="10" height="10" transform="rotate(0,120,250)"/><rect x="115" y="255" width="10" height="10" transform="rotate(0,120,260)"/><path d="M 125 5v 10h 10v -5a 5 5, 0, 0, 0, -5 -5" transform="rotate(-90,130,10)"/><path d="M 125 35v 10h 10v -5a 5 5, 0, 0, 0, -5 -5" transform="rotate(-90,130,40)"/><rect x="125" y="45" width="10" height="10" transform="rotate(0,130,50)"/><path d="M 125 65v 10h 10v -5a 5 5, 0, 0, 0, -5 -5" transform="rotate(-90,130,70)"/><rect x="125" y="75" width="10" height="10" transform="rotate(0,130,80)"/><path d="M 125 95v 5a 5 5, 0, 0, 0, 5 5h 5v -5a 5 5, 0, 0, 0, -5 -5" transform="rotate(90,130,100)"/><rect x="125" y="115" width="10" height="10" transform="rotate(0,130,120)"/><rect x="125" y="145" width="10" height="10" transform="rotate(0,130,150)"/><rect x="125" y="155" width="10" height="10" transform="rotate(0,130,160)"/><rect x="125" y="165" width="10" height="10" transform="rotate(0,130,170)"/><rect x="125" y="195" width="10" height="10" transform="rotate(0,130,200)"/><path d="M 125 215v 10h 10v -5a 5 5, 0, 0, 0, -5 -5" transform="rotate(-90,130,220)"/><rect x="125" y="225" width="10" height="10" transform="rotate(0,130,230)"/><rect x="125" y="255" width="10" height="10" transform="rotate(0,130,260)"/><path d="M 125 275v 5a 5 5, 0, 0, 0, 5 5h 5v -5a 5 5, 0, 0, 0, -5 -5" transform="rotate(90,130,280)"/><rect x="135" y="5" width="10" height="10" transform="rotate(0,140,10)"/><path d="M 135 25v 10h 10v -5a 5 5, 0, 0, 0, -5 -5" transform="rotate(-90,140,30)"/><rect x="135" y="45" width="10" height="10" transform="rotate(0,140,50)"/><rect x="135" y="75" width="10" height="10" transform="rotate(0,140,80)"/><rect x="135" y="115" width="10" height="10" transform="rotate(0,140,120)"/><rect x="135" y="125" width="10" height="10" transform="rotate(0,140,130)"/><path d="M 135 145v 10h 10v -5a 5 5, 0, 0, 0, -5 -5" transform="rotate(90,140,150)"/><path d="M 135 165v 10h 10v -5a 5 5, 0, 0, 0, -5 -5" transform="rotate(90,140,170)"/><path d="M 135 185v 10h 10v -5a 5 5, 0, 0, 0, -5 -5" transform="rotate(-90,140,190)"/><rect x="135" y="195" width="10" height="10" transform="rotate(0,140,200)"/><rect x="135" y="205" width="10" height="10" transform="rotate(0,140,210)"/><path d="M 135 225v 10h 10v -5a 5 5, 0, 0, 0, -5 -5" transform="rotate(90,140,230)"/><path d="M 135 245v 10h 10v -5a 5 5, 0, 0, 0, -5 -5" transform="rotate(-90,140,250)"/><path d="M 135 255v 10h 10v -5a 5 5, 0, 0, 0, -5 -5" transform="rotate(90,140,260)"/><path d="M 135 285v 5a 5 5, 0, 0, 0, 5 5h 5v -5a 5 5, 0, 0, 0, -5 -5" transform="rotate(90,140,290)"/><rect x="145" y="5" width="10" height="10" transform="rotate(0,150,10)"/><rect x="145" y="25" width="10" height="10" transform="rotate(0,150,30)"/><rect x="145" y="45" width="10" height="10" transform="rotate(0,150,50)"/><rect x="145" y="55" width="10" height="10" transform="rotate(0,150,60)"/><rect x="145" y="65" width="10" height="10" transform="rotate(0,150,70)"/><rect x="145" y="75" width="10" height="10" transform="rotate(0,150,80)"/><rect x="145" y="85" width="10" height="10" transform="rotate(0,150,90)"/><path d="M 145 95v 10h 10v -5a 5 5, 0, 0, 0, -5 -5" transform="rotate(90,150,100)"/><rect x="145" y="125" width="10" height="10" transform="rotate(0,150,130)"/><path d="M 145 155v 10h 10v -5a 5 5, 0, 0, 0, -5 -5" transform="rotate(-90,150,160)"/><path d="M 145 175v 5a 5 5, 0, 0, 0, 5 5h 5v -5a 5 5, 0, 0, 0, -5 -5" transform="rotate(90,150,180)"/><rect x="145" y="205" width="10" height="10" transform="rotate(0,150,210)"/><path d="M 145 215v 10h 10v -5a 5 5, 0, 0, 0, -5 -5" transform="rotate(90,150,220)"/><path d="M 145 235v 5a 5 5, 0, 0, 0, 5 5h 5v -5a 5 5, 0, 0, 0, -5 -5" transform="rotate(90,150,240)"/><rect x="155" y="5" width="10" height="10" transform="rotate(0,160,10)"/><rect x="155" y="15" width="10" height="10" transform="rotate(0,160,20)"/><rect x="155" y="25" width="10" height="10" transform="rotate(0,160,30)"/><rect x="155" y="35" width="10" height="10" transform="rotate(0,160,40)"/><path d="M 155 55v 10h 10v -5a 5 5, 0, 0, 0, -5 -5" transform="rotate(90,160,60)"/><rect x="155" y="75" width="10" height="10" transform="rotate(0,160,80)"/><path d="M 155 105v 10h 10v -5a 5 5, 0, 0, 0, -5 -5" transform="rotate(-90,160,110)"/><rect x="155" y="115" width="10" height="10" transform="rotate(0,160,120)"/><path d="M 155 125v 10h 10v -5a 5 5, 0, 0, 0, -5 -5" transform="rotate(90,160,130)"/><rect x="155" y="155" width="10" height="10" transform="rotate(0,160,160)"/><path d="M 155 165v 10h 10v -5a 5 5, 0, 0, 0, -5 -5" transform="rotate(90,160,170)"/><path d="M 155 205v 10h 10v -5a 5 5, 0, 0, 0, -5 -5" transform="rotate(90,160,210)"/><path d="M 155 245v 10h 10v -5a 5 5, 0, 0, 0, -5 -5" transform="rotate(-90,160,250)"/><rect x="155" y="255" width="10" height="10" transform="rotate(0,160,260)"/><rect x="155" y="265" width="10" height="10" transform="rotate(0,160,270)"/><rect x="165" y="15" width="10" height="10" transform="rotate(0,170,20)"/><rect x="165" y="25" width="10" height="10" transform="rotate(0,170,30)"/><rect x="165" y="35" width="10" height="10" transform="rotate(0,170,40)"/><path d="M 165 45v 10h 10v -5a 5 5, 0, 0, 0, -5 -5" transform="rotate(90,170,50)"/><path d="M 165 65v 10h 10v -5a 5 5, 0, 0, 0, -5 -5" transform="rotate(-90,170,70)"/><rect x="165" y="75" width="10" height="10" transform="rotate(0,170,80)"/><path d="M 165 85v 10h 10v -5a 5 5, 0, 0, 0, -5 -5" transform="rotate(90,170,90)"/><path d="M 165 185v 10h 10v -5a 5 5, 0, 0, 0, -5 -5" transform="rotate(-90,170,190)"/><path d="M 165 235v 10h 10v -5a 5 5, 0, 0, 0, -5 -5" transform="rotate(-90,170,240)"/><rect x="165" y="255" width="10" height="10" transform="rotate(0,170,260)"/><rect x="165" y="265" width="10" height="10" transform="rotate(0,170,270)"/><path d="M 165 285v 10h 10v -5a 5 5, 0, 0, 0, -5 -5" transform="rotate(-90,170,290)"/><path d="M 175 5v 10h 10v -5a 5 5, 0, 0, 0, -5 -5" transform="rotate(-90,180,10)"/><path d="M 175 95v 5a 5 5, 0, 0, 0, 5 5h 5v -5a 5 5, 0, 0, 0, -5 -5" transform="rotate(90,180,100)"/><path d="M 175 145v 10h 10v -5a 5 5, 0, 0, 0, -5 -5" transform="rotate(-90,180,150)"/><path d="M 175 165v 10h 10v -5a 5 5, 0, 0, 0, -5 -5" transform="rotate(-90,180,170)"/><rect x="175" y="185" width="10" height="10" transform="rotate(0,180,190)"/><rect x="175" y="195" width="10" height="10" transform="rotate(0,180,200)"/><path d="M 175 205v 10h 10v -5a 5 5, 0, 0, 0, -5 -5" transform="rotate(90,180,210)"/><path d="M 175 225v 10h 10v -5a 5 5, 0, 0, 0, -5 -5" transform="rotate(-90,180,230)"/><rect x="175" y="235" width="10" height="10" transform="rotate(0,180,240)"/><rect x="175" y="245" width="10" height="10" transform="rotate(0,180,250)"/><rect x="175" y="255" width="10" height="10" transform="rotate(0,180,260)"/><path d="M 175 265v 10h 10v -5a 5 5, 0, 0, 0, -5 -5" transform="rotate(90,180,270)"/><rect x="175" y="285" width="10" height="10" transform="rotate(0,180,290)"/><rect x="185" y="5" width="10" height="10" transform="rotate(0,190,10)"/><rect x="185" y="15" width="10" height="10" transform="rotate(0,190,20)"/><rect x="185" y="25" width="10" height="10" transform="rotate(0,190,30)"/><path d="M 185 35v 10h 10v -5a 5 5, 0, 0, 0, -5 -5" transform="rotate(90,190,40)"/><path d="M 185 55v 10h 10v -5a 5 5, 0, 0, 0, -5 -5" transform="rotate(-90,190,60)"/><rect x="185" y="65" width="10" height="10" transform="rotate(0,190,70)"/><rect x="185" y="75" width="10" height="10" transform="rotate(0,190,80)"/><path d="M 185 115v 10h 10v -5a 5 5, 0, 0, 0, -5 -5" transform="rotate(-90,190,120)"/><path d="M 185 125v 10h 10v -5a 5 5, 0, 0, 0, -5 -5" transform="rotate(90,190,130)"/><rect x="185" y="145" width="10" height="10" transform="rotate(0,190,150)"/><rect x="185" y="165" width="10" height="10" transform="rotate(0,190,170)"/><path d="M 185 175v 10h 10v -5a 5 5, 0, 0, 0, -5 -5" transform="rotate(90,190,180)"/><path d="M 185 195v 10h 10v -5a 5 5, 0, 0, 0, -5 -5" transform="rotate(90,190,200)"/><path d="M 185 285v 10h 10v -5a 5 5, 0, 0, 0, -5 -5" transform="rotate(90,190,290)"/><rect x="195" y="5" width="10" height="10" transform="rotate(0,200,10)"/><path d="M 195 25v 10h 10v -5a 5 5, 0, 0, 0, -5 -5" transform="rotate(90,200,30)"/><path d="M 195 45v 10h 10v -5a 5 5, 0, 0, 0, -5 -5" transform="rotate(-90,200,50)"/><rect x="195" y="55" width="10" height="10" transform="rotate(0,200,60)"/><rect x="195" y="75" width="10" height="10" transform="rotate(0,200,80)"/><path d="M 195 105v 10h 10v -5a 5 5, 0, 0, 0, -5 -5" transform="rotate(-90,200,110)"/><path d="M 195 135v 10h 10v -5a 5 5, 0, 0, 0, -5 -5" transform="rotate(-90,200,140)"/><rect x="195" y="145" width="10" height="10" transform="rotate(0,200,150)"/><rect x="195" y="155" width="10" height="10" transform="rotate(0,200,160)"/><rect x="195" y="165" width="10" height="10" transform="rotate(0,200,170)"/><path d="M 195 215v 10h 10v -5a 5 5, 0, 0, 0, -5 -5" transform="rotate(-90,200,220)"/><rect x="195" y="225" width="10" height="10" transform="rotate(0,200,230)"/><rect x="195" y="235" width="10" height="10" transform="rotate(0,200,240)"/><path d="M 195 255v 5a 5 5, 0, 0, 0, 5 5h 5v -5a 5 5, 0, 0, 0, -5 -5" transform="rotate(90,200,260)"/><path d="M 195 275v 5a 5 5, 0, 0, 0, 5 5h 5v -5a 5 5, 0, 0, 0, -5 -5" transform="rotate(90,200,280)"/><path d="M 205 5v 10h 10v -5a 5 5, 0, 0, 0, -5 -5" transform="rotate(90,210,10)"/><rect x="205" y="55" width="10" height="10" transform="rotate(0,210,60)"/><rect x="205" y="65" width="10" height="10" transform="rotate(0,210,70)"/><path d="M 205 75v 10h 10v -5a 5 5, 0, 0, 0, -5 -5" transform="rotate(90,210,80)"/><rect x="205" y="105" width="10" height="10" transform="rotate(0,210,110)"/><rect x="205" y="115" width="10" height="10" transform="rotate(0,210,120)"/><path d="M 205 125v 10h 10v -5a 5 5, 0, 0, 0, -5 -5" transform="rotate(90,210,130)"/><rect x="205" y="165" width="10" height="10" transform="rotate(0,210,170)"/><rect x="205" y="175" width="10" height="10" transform="rotate(0,210,180)"/><rect x="205" y="185" width="10" height="10" transform="rotate(0,210,190)"/><path d="M 205 205v 10h 10v -5a 5 5, 0, 0, 0, -5 -5" transform="rotate(-90,210,210)"/><rect x="205" y="215" width="10" height="10" transform="rotate(0,210,220)"/><rect x="205" y="225" width="10" height="10" transform="rotate(0,210,230)"/><rect x="205" y="235" width="10" height="10" transform="rotate(0,210,240)"/><rect x="205" y="245" width="10" height="10" transform="rotate(0,210,250)"/><path d="M 205 265v 10h 10v -5a 5 5, 0, 0, 0, -5 -5" transform="rotate(-90,210,270)"/><path d="M 205 285v 5a 5 5, 0, 0, 0, 5 5h 5v -5a 5 5, 0, 0, 0, -5 -5" transform="rotate(90,210,290)"/><path d="M 215 85v 10h 10v -5a 5 5, 0, 0, 0, -5 -5" transform="rotate(-90,220,90)"/><rect x="215" y="95" width="10" height="10" transform="rotate(0,220,100)"/><path d="M 215 135v 10h 10v -5a 5 5, 0, 0, 0, -5 -5" transform="rotate(-90,220,140)"/><path d="M 215 155v 10h 10v -5a 5 5, 0, 0, 0, -5 -5" transform="rotate(-90,220,160)"/><rect x="215" y="175" width="10" height="10" transform="rotate(0,220,180)"/><rect x="215" y="185" width="10" height="10" transform="rotate(0,220,190)"/><rect x="215" y="195" width="10" height="10" transform="rotate(0,220,200)"/><rect x="215" y="205" width="10" height="10" transform="rotate(0,220,210)"/><rect x="215" y="245" width="10" height="10" transform="rotate(0,220,250)"/><rect x="215" y="255" width="10" height="10" transform="rotate(0,220,260)"/><path d="M 215 265v 10h 10v -5a 5 5, 0, 0, 0, -5 -5" transform="rotate(90,220,270)"/><rect x="225" y="85" width="10" height="10" transform="rotate(0,230,90)"/><rect x="225" y="95" width="10" height="10" transform="rotate(0,230,100)"/><path d="M 225 115v 10h 10v -5a 5 5, 0, 0, 0, -5 -5" transform="rotate(-90,230,120)"/><rect x="225" y="125" width="10" height="10" transform="rotate(0,230,130)"/><rect x="225" y="135" width="10" height="10" transform="rotate(0,230,140)"/><rect x="225" y="145" width="10" height="10" transform="rotate(0,230,150)"/><rect x="225" y="155" width="10" height="10" transform="rotate(0,230,160)"/><rect x="225" y="165" width="10" height="10" transform="rotate(0,230,170)"/><rect x="225" y="175" width="10" height="10" transform="rotate(0,230,180)"/><rect x="225" y="195" width="10" height="10" transform="rotate(0,230,200)"/><rect x="225" y="205" width="10" height="10" transform="rotate(0,230,210)"/><path d="M 225 225v 5a 5 5, 0, 0, 0, 5 5h 5v -5a 5 5, 0, 0, 0, -5 -5" transform="rotate(90,230,230)"/><rect x="225" y="245" width="10" height="10" transform="rotate(0,230,250)"/><path d="M 225 275v 5a 5 5, 0, 0, 0, 5 5h 5v -5a 5 5, 0, 0, 0, -5 -5" transform="rotate(90,230,280)"/><rect x="235" y="95" width="10" height="10" transform="rotate(0,240,100)"/><rect x="235" y="105" width="10" height="10" transform="rotate(0,240,110)"/><path d="M 235 115v 10h 10v -5a 5 5, 0, 0, 0, -5 -5" transform="rotate(90,240,120)"/><path d="M 235 135v 10h 10v -5a 5 5, 0, 0, 0, -5 -5" transform="rotate(90,240,140)"/><rect x="235" y="175" width="10" height="10" transform="rotate(0,240,180)"/><rect x="235" y="185" width="10" height="10" transform="rotate(0,240,190)"/><rect x="235" y="195" width="10" height="10" transform="rotate(0,240,200)"/><rect x="235" y="205" width="10" height="10" transform="rotate(0,240,210)"/><rect x="235" y="245" width="10" height="10" transform="rotate(0,240,250)"/><path d="M 235 255v 10h 10v -5a 5 5, 0, 0, 0, -5 -5" transform="rotate(90,240,260)"/><path d="M 235 285v 10h 10v -5a 5 5, 0, 0, 0, -5 -5" transform="rotate(-90,240,290)"/><path d="M 245 125v 5a 5 5, 0, 0, 0, 5 5h 5v -5a 5 5, 0, 0, 0, -5 -5" transform="rotate(90,250,130)"/><path d="M 245 155v 5a 5 5, 0, 0, 0, 5 5h 5v -5a 5 5, 0, 0, 0, -5 -5" transform="rotate(90,250,160)"/><rect x="245" y="175" width="10" height="10" transform="rotate(0,250,180)"/><rect x="245" y="195" width="10" height="10" transform="rotate(0,250,200)"/><rect x="245" y="205" width="10" height="10" transform="rotate(0,250,210)"/><rect x="245" y="215" width="10" height="10" transform="rotate(0,250,220)"/><rect x="245" y="225" width="10" height="10" transform="rotate(0,250,230)"/><rect x="245" y="235" width="10" height="10" transform="rotate(0,250,240)"/><path d="M 245 245v 10h 10v -5a 5 5, 0, 0, 0, -5 -5" transform="rotate(90,250,250)"/><path d="M 245 275v 10h 10v -5a 5 5, 0, 0, 0, -5 -5" transform="rotate(-90,250,280)"/><path d="M 245 285v 10h 10v -5a 5 5, 0, 0, 0, -5 -5" transform="rotate(90,250,290)"/><path d="M 255 95v 10h 10v -5a 5 5, 0, 0, 0, -5 -5" transform="rotate(-90,260,100)"/><rect x="255" y="105" width="10" height="10" transform="rotate(0,260,110)"/><path d="M 255 135v 10h 10v -5a 5 5, 0, 0, 0, -5 -5" transform="rotate(-90,260,140)"/><rect x="255" y="175" width="10" height="10" transform="rotate(0,260,180)"/><rect x="255" y="185" width="10" height="10" transform="rotate(0,260,190)"/><rect x="255" y="195" width="10" height="10" transform="rotate(0,260,200)"/><rect x="255" y="205" width="10" height="10" transform="rotate(0,260,210)"/><rect x="255" y="235" width="10" height="10" transform="rotate(0,260,240)"/><path d="M 255 255v 10h 10v -5a 5 5, 0, 0, 0, -5 -5" transform="rotate(-90,260,260)"/><rect x="255" y="265" width="10" height="10" transform="rotate(0,260,270)"/><rect x="255" y="275" width="10" height="10" transform="rotate(0,260,280)"/><rect x="265" y="95" width="10" height="10" transform="rotate(0,270,100)"/><path d="M 265 105v 10h 10v -5a 5 5, 0, 0, 0, -5 -5" transform="rotate(90,270,110)"/><path d="M 265 135v 10h 10v -5a 5 5, 0, 0, 0, -5 -5" transform="rotate(90,270,140)"/><path d="M 265 155v 10h 10v -5a 5 5, 0, 0, 0, -5 -5" transform="rotate(-90,270,160)"/><rect x="265" y="165" width="10" height="10" transform="rotate(0,270,170)"/><rect x="265" y="195" width="10" height="10" transform="rotate(0,270,200)"/><rect x="265" y="205" width="10" height="10" transform="rotate(0,270,210)"/><rect x="265" y="215" width="10" height="10" transform="rotate(0,270,220)"/><rect x="265" y="225" width="10" height="10" transform="rotate(0,270,230)"/><rect x="265" y="235" width="10" height="10" transform="rotate(0,270,240)"/><rect x="265" y="245" width="10" height="10" transform="rotate(0,270,250)"/><path d="M 265 255v 10h 10v -5a 5 5, 0, 0, 0, -5 -5" transform="rotate(90,270,260)"/><path d="M 265 275v 10h 10v -5a 5 5, 0, 0, 0, -5 -5" transform="rotate(90,270,280)"/><path d="M 275 85v 10h 10v -5a 5 5, 0, 0, 0, -5 -5" transform="rotate(-90,280,90)"/><rect x="275" y="95" width="10" height="10" transform="rotate(0,280,100)"/><path d="M 275 115v 10h 10v -5a 5 5, 0, 0, 0, -5 -5" transform="rotate(-90,280,120)"/><path d="M 275 125v 10h 10v -5a 5 5, 0, 0, 0, -5 -5" transform="rotate(90,280,130)"/><rect x="275" y="165" width="10" height="10" transform="rotate(0,280,170)"/><rect x="275" y="195" width="10" height="10" transform="rotate(0,280,200)"/><rect x="275" y="205" width="10" height="10" transform="rotate(0,280,210)"/><rect x="275" y="215" width="10" height="10" transform="rotate(0,280,220)"/><rect x="275" y="245" width="10" height="10" transform="rotate(0,280,250)"/><path d="M 275 265v 10h 10v -5a 5 5, 0, 0, 0, -5 -5" transform="rotate(-90,280,270)"/><path d="M 275 285v 5a 5 5, 0, 0, 0, 5 5h 5v -5a 5 5, 0, 0, 0, -5 -5" transform="rotate(90,280,290)"/><rect x="285" y="95" width="10" height="10" transform="rotate(0,290,100)"/><rect x="285" y="105" width="10" height="10" transform="rotate(0,290,110)"/><path d="M 285 115v 10h 10v -5a 5 5, 0, 0, 0, -5 -5" transform="rotate(90,290,120)"/><path d="M 285 155v 10h 10v -5a 5 5, 0, 0, 0, -5 -5" transform="rotate(-90,290,160)"/><rect x="285" y="165" width="10" height="10" transform="rotate(0,290,170)"/><path d="M 285 175v 10h 10v -5a 5 5, 0, 0, 0, -5 -5" transform="rotate(90,290,180)"/><path d="M 285 195v 10h 10v -5a 5 5, 0, 0, 0, -5 -5" transform="rotate(90,290,200)"/><rect x="285" y="215" width="10" height="10" transform="rotate(0,290,220)"/><path d="M 285 225v 10h 10v -5a 5 5, 0, 0, 0, -5 -5" transform="rotate(90,290,230)"/><path d="M 285 245v 10h 10v -5a 5 5, 0, 0, 0, -5 -5" transform="rotate(90,290,250)"/><path d="M 285 265v 10h 10v -5a 5 5, 0, 0, 0, -5 -5" transform="rotate(90,290,270)"/></g><g class="corners-square-color-0-0"><path clip-rule="evenodd" d="M 5 15v 50a 10 10, 0, 0, 0, 10 10h 50a 10 10, 0, 0, 0, 10 -10v -50a 10 10, 0, 0, 0, -10 -10h -50a 10 10, 0, 0, 0, -10 10zM 20 15h 40a 5 5, 0, 0, 1, 5 5v 40a 5 5, 0, 0, 1, -5 5h -40a 5 5, 0, 0, 1, -5 -5v -40a 5 5, 0, 0, 1, 5 -5z" transform="rotate(0,40,40)"/></g><g class="corners-dot-color-0-0"><path d="M 29.285714285714285 29.285714285714285v 21.428571428571427h 21.428571428571427v -21.428571428571427z" transform="rotate(45,40,40)"/></g><g class="corners-square-color-1-0"><path clip-rule="evenodd" d="M 225 15v 50a 10 10, 0, 0, 0, 10 10h 50a 10 10, 0, 0, 0, 10 -10v -50a 10 10, 0, 0, 0, -10 -10h -50a 10 10, 0, 0, 0, -10 10zM 240 15h 40a 5 5, 0, 0, 1, 5 5v 40a 5 5, 0, 0, 1, -5 5h -40a 5 5, 0, 0, 1, -5 -5v -40a 5 5, 0, 0, 1, 5 -5z" transform="rotate(90,260,40)"/></g><g class="corners-dot-color-1-0"><path d="M 249.28571428571428 29.285714285714285v 21.428571428571427h 21.428571428571427v -21.428571428571427z" transform="rotate(135,260,40)"/></g><g class="corners-square-color-0-1"><path clip-rule="evenodd" d="M 5 235v 50a 10 10, 0, 0, 0, 10 10h 50a 10 10, 0, 0, 0, 10 -10v -50a 10 10, 0, 0, 0, -10 -10h -50a 10 10, 0, 0, 0, -10 10zM 20 235h 40a 5 5, 0, 0, 1, 5 5v 40a 5 5, 0, 0, 1, -5 5h -40a 5 5, 0, 0, 1, -5 -5v -40a 5 5, 0, 0, 1, 5 -5z" transform="rotate(-90,40,260)"/></g><g class="corners-dot-color-0-1"><path d="M 29.285714285714285 249.28571428571428v 21.428571428571427h 21.428571428571427v -21.428571428571427z" transform="rotate(-45,40,260)"/></g></svg></g></svg></svg>