<svg width="63" height="58" viewBox="0 0 63 58" fill="none" xmlns="http://www.w3.org/2000/svg">
<path d="M40.9552 54.2357C34.1681 57.6109 26.3847 58.1409 19.1827 55.8967C12.3552 53.6342 6.95033 49.0757 3.59481 43.0067C3.35513 42.5733 3.19534 42.2843 2.95566 41.8508C-3.96521 27.9422 2.06442 11.0241 16.2278 3.94781C29.9493 -2.88414 46.4777 2.31635 53.748 15.4657L55.5923 10.1065C56.2112 8.44363 58.1258 7.38507 59.7959 7.97106C61.4659 8.55705 62.5045 10.4355 61.8856 12.0984L57.4433 24.9315C57.1737 25.8353 56.5173 26.3869 55.7809 26.794C55.0445 27.2012 54.0685 27.1748 53.2397 27.067L40.346 22.8757C39.4373 22.6234 38.8906 21.9823 38.571 21.4043C38.1716 20.6818 37.9867 19.652 38.4035 18.6668C39.0225 17.0039 40.9371 15.9454 42.6071 16.5314L47.7646 18.2079C41.9574 8.40037 29.4507 4.56107 19.0491 9.74611C13.7347 12.3071 9.83335 16.7282 7.92165 22.3133C5.93007 27.7539 6.27754 33.5993 8.92653 38.7381C11.4282 43.9584 15.832 47.7498 21.4438 49.5524C26.9084 51.4366 32.8195 50.9983 38.054 48.2929C39.674 47.3971 41.6512 48.1907 42.53 49.7802C43.2616 51.4511 42.5752 53.3399 40.9552 54.2357Z" fill="white"/>
</svg>
