<svg width="57" height="57" viewBox="0 0 57 57" fill="none" xmlns="http://www.w3.org/2000/svg">
<path d="M25.5309 13.079C18.6803 14.3571 13.3666 20.4597 13.0304 27.4048C12.8666 30.7851 13.676 33.8976 15.5007 36.7433C15.6822 37.0266 15.7243 37.2712 15.6259 37.5954C15.3739 38.4224 15.1611 39.2614 14.9342 40.0958C14.6913 40.9883 14.4496 41.8813 14.2112 42.7595C14.3409 42.8426 14.4172 42.7925 14.4968 42.772C16.2026 42.3238 17.9096 41.8824 19.6126 41.4234C19.9129 41.3426 20.1507 41.3722 20.422 41.5349C23.8382 43.5843 27.5092 44.2509 31.4328 43.5462C39.6776 42.065 45.3809 33.7492 43.79 25.522C42.1274 16.9263 34.1283 11.475 25.5321 13.079H25.5309ZM38.0906 33.9482C37.8836 35.9436 37.0065 37.0067 34.5515 37.7353C34.1921 37.8417 33.8166 37.861 33.4913 37.8513C32.6318 37.8531 31.8674 37.6358 31.1057 37.3906C26.5627 35.9277 23.2262 32.9887 20.728 28.9906C19.8299 27.5538 18.9829 26.1079 18.8117 24.3856C18.62 22.4613 19.273 20.8465 20.7303 19.5735C21.3611 19.0224 22.539 18.9217 23.2813 19.3102C23.597 19.4751 23.8166 19.7248 23.9406 20.0553C24.4047 21.2942 24.8603 22.5358 25.3273 23.7735C25.4775 24.1717 25.3614 24.5164 25.1214 24.8196C24.7949 25.2314 24.4303 25.6125 24.097 26.0186C23.6255 26.5931 23.6164 26.8365 23.9821 27.4838C25.3501 29.9064 27.2931 31.7197 29.7719 32.9688C30.6257 33.3988 30.8828 33.3607 31.5335 32.6451C31.9555 32.1804 32.3753 31.7112 32.7604 31.2163C33.0482 30.846 33.377 30.7539 33.7837 30.9416C35.1562 31.5741 36.4712 32.3164 37.7914 33.0495C38.1611 33.2549 38.1281 33.6064 38.0923 33.9488L38.0906 33.9482Z" fill="black"/>
<path d="M50.5959 0H6.2841C2.81328 0 0 2.81328 0 6.2841V50.5959C0 54.0667 2.81328 56.88 6.2841 56.88H50.5959C54.0667 56.88 56.88 54.0667 56.88 50.5959V6.2841C56.88 2.81328 54.0667 0 50.5959 0ZM31.2351 46.7866C27.3081 47.3537 23.5597 46.7281 20.0172 44.9335C19.7072 44.7765 19.4399 44.7435 19.1014 44.834C16.1357 45.6251 13.1654 46.397 10.1963 47.1734C10.0535 47.2104 9.90679 47.2314 9.69747 47.273C10.057 45.9477 10.3982 44.6775 10.7458 43.4085C11.2338 41.6254 11.7196 39.8416 12.2241 38.063C12.3094 37.7615 12.2753 37.5249 12.128 37.2524C6.63676 27.0572 11.4386 14.5715 22.3413 10.6787C33.1178 6.83129 44.9688 13.7655 46.9061 25.0517C48.6938 35.4647 41.6219 45.2873 31.2351 46.7878V46.7866Z" fill="black"/>
</svg>
