<svg width="369" height="636" viewBox="0 0 369 636" fill="none" xmlns="http://www.w3.org/2000/svg">
<path d="M46.3815 550.205C48.8003 555.126 51.2905 560.012 53.6224 564.976C56.3581 570.787 60.8959 572.537 66.4917 570.015C77.4331 565.093 88.2643 559.909 98.9371 554.454C104.676 551.513 104.982 546.279 102.566 540.939C98.6919 532.385 94.4271 523.992 90.5579 515.436C85.5181 504.331 87.1514 498.571 97.0965 491.275C115.012 478.159 129.157 461.554 141.087 442.995C148.991 430.694 154.543 428.611 168.433 433.662C176.035 436.422 183.687 439.012 191.38 441.53C200.287 444.467 203.868 442.916 207.138 434.204C210.792 424.428 213.874 414.445 217.508 404.667C220.187 397.45 217.675 393.189 210.811 390.694C201.516 387.289 192.219 383.88 182.994 380.257C174.03 376.74 170.995 371.558 172.049 362.001C174.823 336.915 174.106 312.08 168.006 287.425C166.192 280.109 169.366 274.08 176.343 270.639C185.454 266.11 194.661 261.775 203.76 257.233C211.717 253.271 213.403 249.387 209.895 241.579C205.403 231.587 200.558 221.729 195.646 211.943C192.584 205.816 187.65 203.983 181.315 206.988C172.593 211.136 163.99 215.485 155.24 219.576C145.142 224.292 138.994 222.465 132.196 213.536C117.843 194.63 100.547 178.92 80.3036 166.541C71.1636 160.962 69.1549 155.998 72.6503 145.616C75.6518 136.719 78.8615 127.884 82.0431 119.057C84.9884 110.923 83.3472 106.526 75.4716 103.558C65.2305 99.6867 54.8417 96.1858 44.4997 92.5605C37.7598 90.2007 33.4805 92.6019 31.1892 99.2929C28.3288 107.664 25.2018 115.958 22.2652 124.316C18.2844 135.697 12.2265 139.163 0.217843 137.681C-7.25739 136.766 -14.869 136.439 -22.4091 136.424C-27.122 136.421 -29.2332 134.822 -29.0832 130.121C-29.0014 127.514 -29.1026 124.896 -29.1989 122.287C-29.78 106.772 -29.6895 106.208 -13.9364 107.89C-5.98984 108.731 -2.2563 106.497 0.409606 99.0071C3.32492 90.7862 5.27459 82.0068 11.6868 75.1854C22.5856 63.611 35.6068 59.3089 50.6796 64.0315C64.5995 68.3954 78.3361 73.4959 91.7631 79.2049C107.547 85.9167 115.6 105.422 110.546 122.851C108.95 128.364 107.212 133.883 104.875 139.101C102.473 144.471 103.116 147.907 108.246 151.533C122.366 161.49 135.01 173.206 146.348 186.261C149.324 189.685 151.844 190.246 155.702 188.122C160.262 185.621 165.078 183.564 169.809 181.346C190.151 171.748 210.399 178.731 220.495 198.924C225.515 208.956 230.557 219.008 235.211 229.225C245.705 252.24 238.681 271.195 216.099 282.453C193.899 293.522 197.899 287.868 200.481 311.247C201.836 323.448 202.63 335.746 201.305 347.977C200.57 354.815 203.04 358.279 209.288 360.025C213.296 361.148 217.201 362.683 221.144 364.06C241.348 371.172 251.402 389.46 245.31 410.143C241.121 424.365 235.9 438.371 230.091 452.032C223.657 467.155 202.927 475.176 185.933 470.054C181.205 468.626 176.377 467.177 171.985 464.95C165.489 461.666 161.479 463.763 157.481 469.214C147.766 482.488 136.887 494.801 124.358 505.535C120.938 508.471 119.9 511.726 121.957 515.911C124.722 521.537 127.485 527.157 129.984 532.913C137.034 549.141 129.999 569.983 114.299 578.175C101.585 584.805 88.6419 591.046 75.5539 596.889C58.9099 604.322 38.4201 596.951 29.7687 580.833C27.0557 575.777 24.5344 570.609 22.1279 565.39C19.6211 559.967 16.0579 557.865 9.72833 558.688C-8.9625 561.156 -8.76209 560.881 -8.9422 541.524C-9.00532 534.906 -6.65527 532.192 -0.128449 531.538C7.37117 530.787 14.8279 529.251 22.1962 527.639C30.3697 525.859 35.8556 528.854 39.3951 536.171C41.6729 540.87 44.0042 545.549 46.305 550.23C46.3357 550.215 46.3612 550.203 46.3918 550.187L46.3815 550.205Z" fill="white" fill-opacity="0.38"/>
<path d="M46.1485 550.864L46.0769 550.899L45.8563 550.451C45.0904 548.892 44.3208 547.334 43.5506 545.774C42.0086 542.651 40.4647 539.524 38.945 536.389C37.2068 532.796 35.0167 530.316 32.3069 528.939C29.6001 527.564 26.3092 527.255 22.3031 528.127C22.3029 528.127 22.3027 528.127 22.3026 528.128L22.1962 527.639C14.8279 529.251 7.37117 530.787 -0.128449 531.538C-6.65527 532.192 -9.00532 534.906 -8.9422 541.524L-8.93649 542.14C-8.76423 560.886 -8.76196 561.13 9.72833 558.688L46.1485 550.864ZM46.1485 550.864C46.8324 552.253 47.5206 553.637 48.2083 555.02C49.8886 558.4 51.5659 561.774 53.1699 565.189L53.17 565.189C54.5734 568.17 56.4717 570.177 58.8028 571.086C61.1377 571.997 63.8144 571.77 66.6972 570.47M46.1485 550.864L210.811 390.694L210.982 390.224C214.47 391.492 216.951 393.243 218.185 395.684C219.422 398.135 219.343 401.161 217.977 404.841L217.508 404.667M66.6972 570.47C66.6971 570.471 66.6969 570.471 66.6968 570.471L66.4917 570.015L66.6972 570.47ZM66.6972 570.47C77.6456 565.546 88.4842 560.358 99.1646 554.899L99.1651 554.899C102.15 553.369 103.772 551.21 104.299 548.699C104.821 546.213 104.254 543.457 103.022 540.733C101.096 536.48 99.0739 532.269 97.0547 528.063L97.0109 527.972C94.9764 523.734 92.9453 519.502 91.0135 515.23L91.0132 515.229C88.5085 509.71 87.7153 505.628 88.6902 502.059C89.666 498.486 92.4455 495.307 97.3923 491.678M97.3923 491.678C115.37 478.517 129.555 461.861 141.508 443.266L141.087 442.995M97.3923 491.678C97.3922 491.678 97.392 491.678 97.3919 491.678L97.0965 491.275M97.3923 491.678L97.0965 491.275M141.087 442.995L141.508 443.266C145.452 437.127 148.738 433.662 152.679 432.294C156.618 430.927 161.335 431.613 168.262 434.132L168.262 434.132C175.871 436.894 183.528 439.486 191.223 442.005M141.087 442.995C129.157 461.554 115.012 478.159 97.0965 491.275M141.087 442.995C148.991 430.694 154.543 428.611 168.433 433.662M191.223 442.005C195.688 443.477 198.976 443.886 201.581 442.69C204.192 441.491 205.964 438.753 207.606 434.38L207.606 434.379C209.436 429.483 211.122 424.537 212.804 419.598L212.887 419.354C214.541 414.494 216.193 409.642 217.977 404.841L217.508 404.667M191.223 442.005L191.38 441.53M191.223 442.005C191.224 442.005 191.224 442.006 191.224 442.006L191.38 441.53M217.508 404.667C215.722 409.474 214.069 414.33 212.415 419.187C210.705 424.21 208.995 429.234 207.138 434.204M217.508 404.667L207.138 434.204M132.594 213.234C135.966 217.663 139.118 220.249 142.611 221.19C146.098 222.13 150.03 221.458 155.028 219.123C159.923 216.835 164.758 214.472 169.598 212.107C173.419 210.24 177.242 208.371 181.101 206.537L181.101 206.537C184.347 204.996 187.305 204.664 189.874 205.569C192.442 206.474 194.525 208.581 196.093 211.718C201.005 221.507 205.854 231.372 210.351 241.374L210.351 241.374C212.122 245.314 212.647 248.398 211.591 251.034C210.541 253.657 207.983 255.689 203.983 257.68L203.76 257.233L155.943 188.56C153.964 189.649 152.244 190.098 150.594 189.762C148.952 189.427 147.488 188.335 145.97 186.589L145.97 186.589C134.656 173.561 122.041 161.873 107.958 151.942L107.957 151.942C105.347 150.096 103.794 148.242 103.251 146.093C102.709 143.949 103.199 141.622 104.418 138.897L104.418 138.896C106.74 133.712 108.471 128.22 110.066 122.712L110.066 122.712C115.06 105.49 107.086 86.2637 91.5675 79.6651C78.1547 73.9621 64.4335 68.8674 50.53 64.5086C43.0781 62.1738 36.1568 62.0757 29.7604 63.9763C23.3606 65.878 17.4535 69.7907 12.0508 75.5282C6.90016 81.0077 4.68007 87.7518 2.44105 94.5533C1.93341 96.0954 1.42481 97.6404 0.880857 99.1742L0.880653 99.1748C-0.468296 102.965 -2.11974 105.522 -4.52125 106.999C-6.92023 108.474 -9.97352 108.812 -13.989 108.387L-13.9895 108.387C-17.9364 107.966 -20.8605 107.69 -23.0354 107.748C-25.2184 107.806 -26.5246 108.199 -27.344 108.998C-28.1666 109.8 -28.6052 111.112 -28.7761 113.295C-28.9462 115.468 -28.845 118.378 -28.6993 122.269L-28.6993 122.269L-28.6919 122.469C-28.598 125.008 -28.5031 127.577 -28.5835 130.137L-28.5835 130.137C-28.6565 132.425 -28.1738 133.818 -27.2354 134.662C-26.2794 135.522 -24.7329 135.923 -22.4088 135.924L-22.4082 135.924C-14.8549 135.939 -7.22228 136.267 0.278572 137.185L0.279063 137.185C6.23706 137.92 10.6212 137.413 13.9951 135.393C17.3652 133.375 19.821 129.789 21.7932 124.151L21.7934 124.15C23.0318 120.625 24.3009 117.121 25.5687 113.62C27.3147 108.798 29.0583 103.983 30.7161 99.1312L30.7162 99.1309C31.8837 95.7217 33.5883 93.313 35.9458 92.0889C38.3098 90.8614 41.2188 90.882 44.6649 92.0886L44.6651 92.0887C47.2472 92.9938 49.8334 93.8916 52.4203 94.7896C60.1871 97.4858 67.9604 100.184 75.6484 103.09M132.594 213.234C118.205 194.279 100.862 178.526 80.5644 166.114L80.5641 166.114C76.0225 163.342 73.355 160.781 72.2071 157.705C71.0599 154.631 71.3886 150.931 73.1241 145.776M132.594 213.234L132.196 213.536M132.594 213.234C132.594 213.234 132.594 213.234 132.594 213.233L132.196 213.536M73.1241 145.776C75.8267 137.764 78.6983 129.804 81.5682 121.848C81.8834 120.974 82.1986 120.1 82.5135 119.227M73.1241 145.776C73.1241 145.776 73.1241 145.776 73.124 145.776L72.6503 145.616L73.1241 145.776ZM82.5135 119.227C83.9986 115.125 84.3766 111.842 83.2774 109.179C82.1729 106.504 79.6372 104.594 75.6484 103.09M82.5135 119.227C82.5134 119.227 82.5133 119.227 82.5133 119.227L82.0431 119.057L82.5135 119.227ZM75.6484 103.09C75.6482 103.09 75.648 103.09 75.6479 103.09L75.4716 103.558L75.6484 103.09ZM132.196 213.536C138.994 222.465 145.142 224.292 155.24 219.576C160.132 217.289 164.979 214.92 169.826 212.552C173.648 210.684 177.47 208.817 181.315 206.988L80.3036 166.541C100.547 178.92 117.843 194.63 132.196 213.536ZM207.138 434.204C203.868 442.916 200.287 444.467 191.38 441.53M207.138 434.204L168.433 433.662M191.38 441.53C183.687 439.012 176.035 436.422 168.433 433.662M168.433 433.662L97.0965 491.275M97.0965 491.275C87.1514 498.571 85.5181 504.331 90.5579 515.436L97.0965 491.275Z" stroke="white" stroke-opacity="0.5"/>
<circle cx="-29.9249" cy="330.558" r="131.225" transform="rotate(2.36817 -29.9249 330.558)" stroke="white" stroke-opacity="0.38" stroke-width="40"/>
</svg>
