<svg width="393" height="681" viewBox="0 0 393 681" fill="none" xmlns="http://www.w3.org/2000/svg">
<path d="M367.179 112.072C365.202 106.957 363.151 101.871 361.264 96.7217C359.05 90.6926 354.684 88.5506 348.888 90.5711C337.556 94.5116 326.311 98.7234 315.2 103.219C309.225 105.644 308.46 110.831 310.397 116.363C313.504 125.224 317.015 133.96 320.117 142.823C324.161 154.328 322.027 159.922 311.479 166.316C292.48 177.805 276.929 193.103 263.414 210.541C254.46 222.1 248.746 223.686 235.354 217.434C228.024 214.017 220.629 210.764 213.187 207.579C204.574 203.871 200.87 205.101 196.847 213.492C192.347 222.908 188.399 232.581 183.92 242.002C180.616 248.956 182.744 253.421 189.362 256.51C198.322 260.719 207.284 264.933 216.155 269.353C224.774 273.644 227.342 279.073 225.452 288.5C220.483 313.245 219.014 338.047 222.923 363.142C224.087 370.59 220.395 376.316 213.143 379.131C203.668 382.842 194.116 386.35 184.653 390.075C176.379 393.322 174.357 397.042 177.165 405.129C180.762 415.477 184.722 425.723 188.754 435.903C191.265 442.275 196.019 444.535 202.594 442.098C211.647 438.733 220.599 435.157 229.675 431.851C240.148 428.041 246.112 430.401 252.099 439.894C264.734 459.988 280.582 477.158 299.659 491.269C308.273 497.63 309.837 502.751 305.443 512.786C301.671 521.385 297.697 529.903 293.751 538.416C290.103 546.26 291.351 550.784 298.935 554.433C308.796 559.19 318.837 563.59 328.82 568.111C335.327 571.054 339.8 569.038 342.671 562.575C346.256 554.487 350.1 546.501 353.76 538.433C358.726 527.446 365.066 524.527 376.897 527.058C384.263 528.626 391.817 529.622 399.326 530.299C404.021 530.717 405.983 532.495 405.421 537.164C405.11 539.754 404.98 542.372 404.847 544.978C404.062 560.484 403.922 561.038 388.378 557.978C380.536 556.441 376.62 558.339 373.306 565.565C369.68 573.498 366.966 582.072 359.979 588.304C348.104 598.875 334.755 602.016 320.156 595.986C306.674 590.416 293.439 584.127 280.566 577.26C265.433 569.186 259.126 549.048 265.692 532.131C267.767 526.78 269.984 521.435 272.77 516.443C275.635 511.305 275.297 507.826 270.505 503.762C257.315 492.602 245.75 479.821 235.604 465.819C232.94 462.147 230.479 461.367 226.449 463.143C221.687 465.234 216.709 466.859 211.801 468.652C190.695 476.426 171.139 467.689 162.857 446.687C158.739 436.253 154.6 425.796 150.862 415.209C142.432 391.361 151.095 373.097 174.579 363.868C197.666 354.793 193.185 360.074 192.668 336.558C192.391 324.285 192.681 311.965 195.076 299.898C196.409 293.15 194.254 289.483 188.183 287.194C184.29 285.723 180.534 283.851 176.728 282.133C157.227 273.272 148.82 254.171 156.707 234.103C162.13 220.305 168.562 206.812 175.549 193.714C183.288 179.216 204.643 173.048 221.121 179.644C225.705 181.482 230.387 183.35 234.566 185.955C240.749 189.798 244.928 188.061 249.389 182.982C260.233 170.614 272.152 159.305 285.577 149.714C289.242 147.09 290.562 143.939 288.881 139.589C286.621 133.742 284.363 127.9 282.38 121.947C276.784 105.163 285.623 85.019 301.983 78.2389C315.231 72.7529 328.672 67.6737 342.223 63.0036C359.456 57.0628 379.219 66.207 386.42 83.0234C388.678 88.2977 390.735 93.6678 392.673 99.0778C394.694 104.7 398.058 107.107 404.436 106.844C423.271 106.028 423.047 106.286 421.525 125.583C421.006 132.181 418.427 134.678 411.868 134.755C404.331 134.845 396.768 135.719 389.287 136.677C380.988 137.731 375.787 134.266 372.904 126.665C371.049 121.785 369.138 116.919 367.257 112.054C367.225 112.066 367.199 112.076 367.167 112.089L367.179 112.072Z" fill="white" fill-opacity="0.38"/>
<path d="M367.469 111.436L367.543 111.407L367.724 111.873C368.349 113.493 368.979 115.113 369.609 116.735C370.871 119.981 372.134 123.232 373.372 126.488C374.787 130.22 376.751 132.883 379.329 134.493C381.905 136.101 385.156 136.698 389.223 136.181C389.223 136.181 389.223 136.181 389.224 136.181L389.287 136.677C396.768 135.719 404.331 134.845 411.868 134.755C418.427 134.678 421.006 132.181 421.525 125.583L421.574 124.969C423.05 106.28 423.069 106.037 404.436 106.844L367.469 111.436ZM367.469 111.436C366.91 109.993 366.346 108.553 365.782 107.114C364.406 103.6 363.031 100.092 361.734 96.5497L361.734 96.5493C360.598 93.4566 358.883 91.2903 356.641 90.1797C354.395 89.0675 351.709 89.058 348.723 90.0989M367.469 111.436L189.362 256.51L189.151 256.963C185.788 255.394 183.47 253.432 182.456 250.891C181.439 248.341 181.784 245.334 183.468 241.788L183.92 242.002M348.723 90.0989C348.723 90.0989 348.724 90.0989 348.724 90.0988L348.888 90.5711L348.723 90.0989ZM348.723 90.0989C337.384 94.042 326.132 98.2567 315.013 102.755L315.012 102.756C311.904 104.017 310.099 106.026 309.353 108.48C308.615 110.911 308.937 113.706 309.925 116.528C311.47 120.933 313.113 125.306 314.755 129.673L314.791 129.768C316.445 134.168 318.096 138.563 319.645 142.988L319.645 142.989C321.655 148.706 322.086 152.843 320.801 156.312C319.515 159.785 316.467 162.708 311.22 165.888M311.22 165.888C292.155 177.417 276.561 192.762 263.019 210.235L263.414 210.541M311.22 165.888C311.22 165.888 311.22 165.888 311.221 165.888L311.479 166.316M311.22 165.888L311.479 166.316M263.414 210.541L263.019 210.235C258.551 216.002 254.973 219.166 250.926 220.182C246.883 221.197 242.244 220.099 235.566 216.981L235.565 216.981C228.229 213.561 220.83 210.306 213.385 207.119M263.414 210.541C276.929 193.103 292.48 177.805 311.479 166.316M263.414 210.541C254.46 222.1 248.746 223.686 235.354 217.434M213.385 207.119C209.067 205.26 205.828 204.565 203.128 205.527C200.421 206.491 198.415 209.063 196.396 213.276L196.396 213.276C194.142 217.992 192.027 222.771 189.918 227.543L189.812 227.783C187.738 232.477 185.667 237.163 183.468 241.788L183.92 242.002M213.385 207.119L213.187 207.579M213.385 207.119C213.385 207.119 213.385 207.119 213.384 207.119L213.187 207.579M183.92 242.002C186.122 237.371 188.195 232.679 190.269 227.986C192.414 223.133 194.559 218.279 196.847 213.492M183.92 242.002L196.847 213.492M251.675 440.16C248.706 435.452 245.793 432.598 242.397 431.354C239.006 430.111 235.03 430.435 229.846 432.321C224.769 434.17 219.745 436.099 214.715 438.03C210.746 439.553 206.773 441.078 202.768 442.567L202.768 442.567C199.399 443.816 196.423 443.887 193.943 442.759C191.465 441.632 189.576 439.35 188.289 436.087C184.256 425.905 180.293 415.652 176.693 405.293L176.693 405.293C175.276 401.212 175.024 398.094 176.307 395.561C177.584 393.041 180.311 391.242 184.471 389.609L184.653 390.075L226.449 463.143L226.249 462.686C226.248 462.686 226.248 462.686 226.248 462.686C228.315 461.774 230.068 461.479 231.681 461.959C233.288 462.437 234.651 463.653 236.009 465.526L236.009 465.526C246.133 479.498 257.672 492.249 270.828 503.381L270.829 503.381C273.267 505.449 274.65 507.432 275.003 509.62C275.354 511.804 274.661 514.079 273.207 516.686L273.207 516.687C270.438 521.647 268.231 526.966 266.159 532.312L266.159 532.312C259.67 549.029 265.923 568.881 280.801 576.819C293.66 583.679 306.881 589.96 320.347 595.524C327.565 598.505 334.451 599.211 340.99 597.88C347.532 596.549 353.76 593.17 359.646 587.93C365.259 582.925 368.063 576.402 370.891 569.823C371.533 568.332 372.175 566.838 372.852 565.358L372.852 565.357C374.529 561.7 376.399 559.298 378.921 558.038C381.44 556.78 384.511 556.711 388.474 557.487L388.474 557.488C392.369 558.254 395.258 558.786 397.429 558.919C399.609 559.054 400.945 558.777 401.831 558.053C402.721 557.327 403.273 556.058 403.635 553.899C403.996 551.749 404.151 548.841 404.348 544.953L404.348 544.953L404.358 544.753C404.488 542.215 404.619 539.648 404.924 537.105L404.924 537.105C405.198 534.832 404.84 533.402 403.979 532.478C403.102 531.538 401.597 531.003 399.282 530.797L399.281 530.797C391.759 530.119 384.184 529.121 376.793 527.547L376.793 527.547C370.922 526.291 366.511 526.41 362.972 528.126C359.438 529.84 356.676 533.196 354.216 538.639L354.216 538.64C352.672 542.042 351.1 545.422 349.529 548.798C347.366 553.447 345.206 558.09 343.128 562.777L343.128 562.778C341.665 566.071 339.756 568.321 337.3 569.333C334.837 570.348 331.941 570.071 328.614 568.566L328.614 568.566C326.122 567.438 323.624 566.316 321.127 565.194C313.627 561.826 306.121 558.454 298.718 554.883M251.675 440.16C264.343 460.307 280.234 477.523 299.361 491.671L299.362 491.671C303.642 494.832 306.074 497.618 306.947 500.783C307.82 503.946 307.167 507.603 304.985 512.585M251.675 440.16L252.099 439.894M251.675 440.16C251.675 440.16 251.676 440.16 251.676 440.16L252.099 439.894M304.985 512.585C301.588 520.328 298.028 528.005 294.47 535.678C294.079 536.521 293.688 537.363 293.298 538.206M304.985 512.585C304.985 512.585 304.985 512.585 304.985 512.585L305.443 512.786L304.985 512.585ZM293.298 538.206C291.458 542.162 290.793 545.398 291.654 548.147C292.519 550.91 294.877 553.035 298.718 554.883M293.298 538.206C293.298 538.206 293.298 538.206 293.298 538.206L293.751 538.416L293.298 538.206ZM298.718 554.883C298.718 554.883 298.718 554.884 298.718 554.884L298.935 554.433L298.718 554.883ZM252.099 439.894C246.112 430.401 240.148 428.041 229.675 431.851C224.6 433.7 219.564 435.633 214.527 437.566C210.556 439.09 206.585 440.615 202.594 442.098L299.659 491.269C280.582 477.158 264.734 459.988 252.099 439.894ZM196.847 213.492C200.87 205.101 204.574 203.871 213.187 207.579M196.847 213.492L235.354 217.434M213.187 207.579C220.629 210.764 228.024 214.017 235.354 217.434M235.354 217.434L311.479 166.316M311.479 166.316C322.027 159.922 324.161 154.328 320.117 142.823L311.479 166.316Z" stroke="white" stroke-opacity="0.5"/>
<circle cx="423.88" cy="337.578" r="131.225" transform="rotate(-172.588 423.88 337.578)" stroke="white" stroke-opacity="0.38" stroke-width="40"/>
</svg>
